<svg width="24" height="24" viewBox="0 0 24 24" fill="none" xmlns="http://www.w3.org/2000/svg">
<path d="M9 14.4375C9.51777 14.4375 9.9375 14.0178 9.9375 13.5C9.9375 12.9822 9.51777 12.5625 9 12.5625C8.48223 12.5625 8.0625 12.9822 8.0625 13.5C8.0625 14.0178 8.48223 14.4375 9 14.4375Z" fill="white"/>
<path d="M15 14.4375C15.5178 14.4375 15.9375 14.0178 15.9375 13.5C15.9375 12.9822 15.5178 12.5625 15 12.5625C14.4822 12.5625 14.0625 12.9822 14.0625 13.5C14.0625 14.0178 14.4822 14.4375 15 14.4375Z" fill="white"/>
<path d="M6.97516 7.49992C8.60111 6.991 10.2963 6.73798 12 6.74992C13.7037 6.73798 15.3988 6.99099 17.0248 7.49989" stroke="white" stroke-width="1.5" stroke-linecap="round" stroke-linejoin="round"/>
<path d="M17.0247 16.5C15.3988 17.0089 13.7036 17.2619 12 17.25C10.2963 17.2619 8.60115 17.0089 6.97522 16.5" stroke="white" stroke-width="1.5" stroke-linecap="round" stroke-linejoin="round"/>
<path d="M14.5354 17.0707L15.6627 19.3255C15.7378 19.4769 15.8621 19.5984 16.0152 19.6701C16.1683 19.7418 16.3412 19.7594 16.5056 19.7201C18.8061 19.1576 20.7893 18.177 22.2338 16.9216C22.3441 16.8267 22.4246 16.702 22.4657 16.5625C22.5069 16.423 22.5068 16.2745 22.4655 16.135L19.2805 5.51819C19.2483 5.41113 19.1927 5.31259 19.1177 5.22973C19.0426 5.14688 18.9501 5.08179 18.8467 5.03921C17.9469 4.6708 17.0163 4.38271 16.0657 4.17831C15.8846 4.13862 15.6952 4.16727 15.5339 4.25876C15.3726 4.35024 15.2509 4.4981 15.192 4.67391L14.4445 6.91638" stroke="white" stroke-width="1.5" stroke-linecap="round" stroke-linejoin="round"/>
<path d="M9.46465 17.0707L8.33728 19.3255C8.26216 19.4769 8.13789 19.5984 7.98478 19.6701C7.83167 19.7418 7.65878 19.7594 7.49436 19.7201C5.19386 19.1576 3.21066 18.177 1.76623 16.9216C1.65592 16.8267 1.57537 16.702 1.53426 16.5625C1.49314 16.423 1.49322 16.2745 1.53448 16.135L4.71953 5.51818C4.75168 5.41113 4.80729 5.31258 4.88233 5.22973C4.95736 5.14687 5.04991 5.08179 5.15327 5.0392C6.05308 4.67079 6.98372 4.38271 7.9343 4.17831C8.11542 4.13862 8.30481 4.16727 8.46608 4.25876C8.62735 4.35024 8.74912 4.4981 8.80798 4.67391L9.55547 6.91638" stroke="white" stroke-width="1.5" stroke-linecap="round" stroke-linejoin="round"/>
</svg>
