<svg width="392" height="340" viewBox="0 0 392 340" fill="none" xmlns="http://www.w3.org/2000/svg">
<g filter="url(#filter0_d_1348_2924)">
<path d="M272.723 216.894L276.651 217.86L283.149 221.949L284.03 221.75C285.452 221.892 289.518 221.437 290.941 221.579C292.363 221.721 292.703 221.182 293.042 220.642C293.382 220.102 293.923 220.443 295.144 219.705C296.365 218.966 298.329 219.449 298.329 219.449C298.329 219.449 300.972 218.853 303.275 218.796C304.698 218.938 309.103 217.943 311.746 217.347L317.234 217.034C320.419 216.778 323.943 215.983 327.669 216.068L338.104 215.102L353.771 204.622C360.067 207.831 366.904 211.38 373.539 214.049C367.042 209.96 360.746 206.751 354.248 202.662L353.707 202.321L353.367 202.861L338.178 211.382C335.81 209.138 333.782 206.355 332.295 203.913C331.552 202.692 331.148 200.931 330.745 199.17C330.341 197.41 330.478 195.99 330.414 193.689C330.011 191.929 330.488 189.969 330.084 188.208C329.882 187.328 329.68 186.448 329.478 185.567L329.277 184.687L329.075 183.806L334.508 175.173L328.533 183.466L325.009 184.261L324.256 189.061L318.08 196.473L313.197 199.427L305.69 190.936C305.488 190.056 301.505 180.769 300.762 179.548C300.56 178.668 299.073 176.225 298.33 175.004L308.71 165.717C311.629 162.281 314.547 158.844 317.668 156.288C319.228 155.01 321.128 153.193 323.092 153.675C324.854 153.278 327.02 154.641 328.305 156.203L347.063 161.228C352.01 160.575 356.076 160.12 360.683 160.006C362.987 159.949 365.29 159.893 367.594 159.836C369.897 159.779 372.403 160.602 372.807 162.363C373.752 164.464 373.275 166.424 372.458 168.923C371.98 170.883 371.163 173.382 370.686 175.341C369.392 179.8 369.52 184.401 369.649 189.001L377.495 196.953L369.649 189.001C369.52 184.401 369.933 180.141 371.228 175.682C371.705 173.723 372.522 171.223 372.999 169.264C373.476 167.304 374.293 164.805 373.348 162.704C372.605 161.482 371.522 160.801 370.439 160.119C369.356 159.438 367.933 159.296 367.052 159.495C364.749 159.552 362.445 159.609 360.142 159.666C355.534 159.779 350.927 159.893 346.522 160.887L328.103 155.322C326.277 153.42 324.111 152.056 321.467 152.653L318.558 150.069L303.048 147.088C303.048 147.088 303.388 146.548 302.846 146.207L303.186 145.668C303.186 145.668 303.186 145.668 303.526 145.128C303.865 144.589 303.865 144.589 304.205 144.049L306.646 142.572L306.04 139.931C305.838 139.051 305.637 138.17 305.976 137.631C305.976 137.631 305.976 137.631 306.316 137.091C306.316 137.091 306.316 137.091 306.655 136.551C306.995 136.012 306.995 136.012 307.335 135.472C307.674 134.933 307.472 134.052 308.151 132.973C308.491 132.433 308.491 132.433 308.831 131.894C309.17 131.354 309.17 131.354 310.051 131.155L312.694 130.559L317.439 129.025L321.386 117.949L317.439 129.025L311.272 130.417L308.629 131.013C307.748 131.212 307.748 131.212 307.408 131.752C307.068 132.292 307.068 132.292 306.729 132.831C306.389 133.371 306.591 134.251 305.912 135.33C305.572 135.87 305.572 135.87 305.233 136.41C305.233 136.41 305.233 136.41 304.893 136.949L304.554 137.489C304.756 138.369 304.957 139.249 304.618 139.789L306.105 142.231L304.003 143.169C303.663 143.708 303.663 143.708 303.324 144.248C303.324 144.248 303.324 144.248 302.984 144.787C302.644 145.327 302.644 145.327 302.644 145.327C302.305 145.867 302.507 146.747 302.507 146.747L291.796 150.553L290.915 150.752L291.117 151.632C291.521 153.393 291.044 155.353 290.906 156.772C290.566 157.312 290.768 158.192 290.429 158.732C290.089 159.272 289.548 158.931 289.006 158.59C288.465 158.249 287.042 158.107 285.822 158.846C284.94 159.045 284.059 159.244 283.518 158.903C282.637 159.102 280.333 159.159 278.03 159.215C277.149 159.414 276.268 159.613 275.726 159.272C275.726 159.272 275.726 159.272 275.185 158.932C268.274 159.102 261.905 159.614 254.994 159.785C254.113 159.983 251.809 160.04 250.726 159.359C249.304 159.217 248.561 157.996 247.138 157.854C245.715 157.712 241.384 154.986 241.384 154.986L243.55 156.349C240.301 154.304 236.85 151.379 235.767 150.698C235.024 149.477 234.354 144.535 232.592 144.933C230.83 145.331 227.379 142.406 227.379 142.406C227.379 142.406 220.202 139.396 220.68 137.436C221.157 135.477 219.946 130.194 219.946 130.194C219.946 130.194 220.285 129.655 219.744 129.314C219.542 128.434 220.221 127.355 220.019 126.474C220.157 125.054 219.955 124.174 220.093 122.754C219.891 121.874 220.23 121.334 219.689 120.993C219.487 120.113 219.487 120.113 218.744 118.892C218 117.671 217.459 117.33 216.918 116.989C216.376 116.648 215.835 116.308 214.954 116.506C213.871 115.825 212.448 115.683 211.026 115.541L206.354 113.355C205.271 112.673 204.188 111.991 202.564 110.969C202.023 110.628 201.481 110.288 200.94 109.947C200.738 109.067 200.738 109.067 200.196 108.726L196.617 101.2C195.874 99.979 195.131 98.7579 195.268 97.3379C195.066 96.4576 194.525 96.1168 194.864 95.5772C194.864 95.5772 195.204 95.0376 194.663 94.6968L194.461 93.8165C193.855 91.1754 193.249 88.5343 192.644 85.8932L198.279 78.14C200.519 75.7827 202.758 73.4255 204.997 71.0682C205.337 70.5286 205.337 70.5286 206.218 70.3298C206.218 70.3298 206.218 70.3298 206.558 69.7902C206.897 69.2506 206.897 69.2506 206.897 69.2506C207.237 68.7109 207.916 67.6317 208.255 67.0921C208.595 66.5525 208.733 65.1326 209.072 64.593C209.412 64.0534 209.412 64.0534 209.21 63.173C209.21 63.173 209.21 63.173 209.008 62.2926C209.008 62.2926 209.008 62.2927 208.806 61.4123C208.54 58.2316 209.155 54.8521 209.77 51.4725C209.908 50.0526 210.385 48.093 212.147 47.6953C213.708 46.4173 214.928 45.6788 215.947 44.06C217.168 43.3216 218.049 43.1227 218.728 42.0435C219.949 41.3051 220.628 40.2259 220.765 38.8059C220.903 37.386 220.701 36.5056 219.958 35.2845L218.609 31.4223L219.958 35.2845C220.701 36.5056 220.564 37.9256 220.765 38.8059C220.628 40.2259 219.407 40.9643 219.068 41.5039C217.847 42.2424 216.626 42.9808 215.745 43.1797C214.185 44.4577 212.964 45.1961 211.404 46.4742C211.065 47.0138 210.523 46.673 210.183 47.2126C209.844 47.7522 209.844 47.7522 209.504 48.2918C209.165 48.8314 209.027 50.2514 208.687 50.791C208.072 54.1705 207.457 57.5501 206.842 60.9296C206.842 60.9296 206.503 61.4692 207.044 61.81C207.044 61.81 207.044 61.81 207.586 62.1507C207.586 62.1507 207.788 63.0311 207.448 63.5707C207.108 64.1103 207.31 64.9907 206.631 66.0699C206.292 66.6095 205.612 67.6887 205.273 68.2283L204.933 68.7679L204.594 69.3075C204.254 69.8471 204.254 69.8471 203.373 70.0459C201.134 72.4032 198.894 74.7604 196.113 76.7769L190.138 85.0698C190.744 87.7109 191.35 90.3519 191.955 92.993L192.157 93.8734C192.157 93.8734 192.157 93.8734 191.818 94.413C191.818 94.413 191.478 94.9526 192.019 95.2934C192.221 96.1737 192.423 97.0541 192.965 97.3949C193.167 98.2752 193.91 99.4964 194.112 100.377L193.561 106.057L193.414 113.497L194.625 118.779L194.753 123.38L193.872 123.579L192.652 124.317C191.771 124.516 191.431 125.056 190.55 125.255C189.669 125.453 187.971 128.151 187.154 130.651L183.226 129.685L186.815 131.19L184.649 129.827L183.566 129.146L182.685 129.344L142.367 133.351C143.047 132.272 143.524 130.312 143.863 129.772C144.203 129.233 145.02 126.734 145.02 126.734L147.122 125.796L151.252 127.642L159.107 129.573L165.339 130.481L178.619 129.799L183.566 129.146C183.566 129.146 174.287 127.073 172.525 127.471C170.763 127.868 163.513 128.579 163.513 128.579L152.27 126.023C152.27 126.023 146.378 124.575 144.552 122.673C142.726 120.77 139.679 119.606 139.679 119.606L134.594 121.679L129.308 122.872C126.94 120.629 124.573 118.385 122.544 115.602C121.461 114.921 121.26 114.04 120.177 113.359C119.433 112.138 118.35 111.456 117.607 110.235C115.781 108.333 113.615 106.969 111.99 105.947C108.2 103.562 104.951 101.517 101.161 99.132C98.9311 95.4686 97.2426 92.146 95.0125 88.4826C93.5258 86.0403 91.6995 84.1377 89.8733 82.235C88.047 80.3324 86.2207 78.4297 84.0549 77.0667L76.1347 72.8356C74.8499 71.2737 73.5651 69.7119 72.6199 67.6104C71.8765 66.3892 71.3351 66.0485 70.5917 64.8273C70.0503 64.4866 69.8484 63.6062 69.8484 63.6062L69.6465 62.7259C70.1238 60.7663 70.6011 58.8067 71.418 56.3076C71.8953 54.348 72.3726 52.3884 73.7309 50.23L82.349 41.3406L82.6886 40.801L82.4867 39.9207L78.8435 30.0947C76.6135 26.4314 74.9249 23.1087 72.3553 19.985C71.2724 19.3034 71.0705 18.4231 69.9875 17.7416C68.9046 17.06 67.8217 16.3785 66.9406 16.5773C64.9766 16.0947 62.673 16.1516 60.7091 15.6689C59.828 15.8677 58.7451 15.1862 58.7451 15.1862C58.2036 14.8454 58.3413 13.4255 58.1394 12.5451C57.9376 11.6647 57.7357 10.7844 57.5338 9.90403C57.3319 9.02367 57.13 8.1433 55.8452 6.58141C55.3038 6.24065 54.4227 6.43948 53.8812 6.09872C53.0002 6.29756 53.0002 6.29757 52.1191 6.49641C51.2381 6.69525 50.0174 7.43369 49.6778 7.97329C48.1176 9.25133 46.0159 10.1886 44.4557 11.4667C42.62 15.5846 40.2429 19.3618 38.4073 23.4798C37.7281 24.559 37.93 25.4394 37.2508 26.5186C36.9112 27.0582 36.5716 27.5978 36.7735 28.4782L36.4339 29.0178L36.0943 29.5574C34.5341 30.8354 31.8909 31.4319 30.1288 31.8296C28.0271 32.7669 25.7235 32.8238 23.42 32.8807C21.1164 32.9376 19.3543 33.3353 16.5092 33.0515C15.9678 32.7107 15.9678 32.7107 14.8848 32.0292C14.3434 31.6884 13.4623 31.8873 13.1227 32.4269C11.9021 33.1653 11.5625 33.7049 10.3418 34.4433C9.32307 36.0622 7.96471 38.2206 6.94595 39.8394L-2.13065 38.6471C-1.79106 38.1075 -1.79106 38.1075 -2.33252 37.7667L-2.5344 36.8863C-2.73628 36.006 -3.27775 35.6652 -3.47963 34.7849C-4.22297 33.5637 -4.96632 32.3426 -5.16819 31.4622L-9.0868 24.4763C-11.5187 19.9325 -14.4921 15.048 -16.5844 9.96466C-14.4921 15.048 -12.0602 19.5918 -9.0868 24.4763L-5.16819 31.4622C-4.42485 32.6834 -3.68151 33.9045 -3.47963 34.7849C-3.27775 35.6652 -2.73628 36.006 -2.5344 36.8863C-2.33253 37.7667 -1.79106 38.1075 -2.13065 38.6471L7.48742 40.1801C8.50618 38.5613 9.86453 36.4029 10.8833 34.7841C11.5625 33.7049 12.4435 33.5061 13.6642 32.7676C14.0038 32.228 14.5452 32.5688 15.0867 32.9095C15.6282 33.2503 16.1696 33.5911 16.7111 33.9318C18.6751 34.4145 21.3183 33.818 23.6218 33.7611C25.9254 33.7042 28.0271 32.7669 30.3307 32.71C32.4324 31.7727 34.736 31.7158 36.6358 29.8981C36.6358 29.8981 36.9754 29.3585 37.315 28.8189L37.6545 28.2793L37.9941 27.7397C38.3337 27.2001 38.6733 26.6605 38.1318 26.3198C38.811 25.2406 38.6091 24.3602 39.2883 23.281C41.124 19.163 42.9596 15.045 45.3367 11.2678C46.897 9.98977 48.4572 8.71173 50.2193 8.31405C51.1004 8.11521 52.321 7.37677 52.6606 6.83717C53.5417 6.63833 54.4227 6.43948 54.9642 6.78025C55.5056 7.12101 55.7075 8.00137 55.9094 8.88174C56.1113 9.7621 56.3132 10.6425 56.515 11.5228C56.7169 12.4032 56.9188 13.2836 57.6621 14.5047C58.2036 14.8454 58.2036 14.8454 58.2036 14.8454L54.2663 19.9007L55.4775 25.1829L55.6059 29.7835L52.0723 36.5995L54.9079 42.904L59.5792 45.0905L63.5714 48.3562L62.0753 51.9346L62.5433 55.9956L62.7451 56.876C61.5245 57.6144 59.4228 58.5517 58.2022 59.2902C57.8626 59.8298 56.9815 60.0286 56.9815 60.0286C56.6419 60.5682 56.3023 61.1078 55.9627 61.6474L54.8063 64.6862L53.6498 67.7249L53.714 70.0253L53.5763 71.4452C53.2367 71.9848 53.2367 71.9848 52.8971 72.5244C52.2179 73.6037 51.1991 75.2224 51.0614 76.6424L45.1601 81.215C45.362 82.0954 44.6828 83.1746 44.8847 84.0549C44.5451 84.5945 44.4074 86.0145 44.0678 86.5541C42.5075 87.8321 40.7454 88.2298 39.1852 89.5079L38.506 90.5871C35.927 93.4839 32.8066 96.04 29.6861 98.5961C28.805 98.7949 28.1259 99.8741 27.2448 100.073C27.2448 100.073 27.2448 100.073 26.7033 99.7322L25.2808 99.5903L19.0493 98.6818L-5.33548 95.3888L-13.9535 104.278L-29.6936 118.479L-36.127 116.69L-39.7154 115.185C-43.3038 113.68 -46.8922 112.175 -50.4805 110.67C-51.022 110.329 -51.5635 109.988 -51.9031 110.528C-52.4445 110.187 -53.3256 110.386 -53.3256 110.386C-54.2066 110.585 -55.4273 111.323 -55.7669 111.863L-61.7324 114.135C-63.1549 113.993 -64.036 114.192 -65.4585 114.05C-66.881 113.908 -67.7621 114.107 -69.1846 113.965L-69.7261 113.624L-70.2675 113.284C-70.809 112.943 -71.3505 112.602 -71.5523 111.722C-72.6353 111.04 -73.3786 109.819 -74.4615 109.138C-75.8841 108.996 -76.7651 109.194 -78.1876 109.053C-80.2893 109.99 -81.7118 109.848 -82.9325 110.586C-84.1531 111.325 -85.3738 112.063 -85.7134 112.603C-86.934 113.341 -87.6132 114.421 -88.8339 115.159C-87.6132 114.421 -86.934 113.341 -85.7134 112.603C-84.4927 111.864 -83.8135 110.785 -82.9325 110.586C-81.7118 109.848 -80.2893 109.99 -79.4083 109.791C-77.9858 109.933 -77.1047 109.734 -75.6822 109.876C-74.5992 110.558 -73.5163 111.239 -72.773 112.46C-72.2315 112.801 -71.69 113.142 -71.4882 114.022C-71.4882 114.022 -70.9467 114.363 -70.4052 114.704C-69.8638 115.044 -69.8638 115.044 -69.8638 115.044C-68.4412 115.186 -67.0187 115.328 -66.1377 115.129C-64.7151 115.271 -63.8341 115.072 -62.4116 115.214L-57.529 112.261C-56.6479 112.062 -55.4273 111.323 -55.0877 110.784C-54.7481 110.244 -54.2067 110.585 -53.6652 110.926C-53.1237 111.266 -53.1237 111.266 -52.2426 111.068C-48.6543 112.573 -45.0659 114.078 -41.4775 115.582L-40.8077 120.524L-33.8328 122.653L-19.9926 110.271L-18.0928 108.453L-8.05218 99.7056L15.993 103.538L22.2245 104.447L23.6471 104.589C23.6471 104.589 24.1885 104.929 24.5281 104.39C25.0696 104.731 25.4092 104.191 25.4092 104.191C26.2902 103.992 27.5109 103.254 28.7315 102.515C32.0538 100.84 34.6328 97.9427 37.7533 95.3866L51.7673 101.946C55.2179 104.871 58.4668 106.916 62.257 109.301C63.8814 110.323 66.0473 111.686 67.6717 112.709C68.7546 113.39 69.2961 113.731 71.5997 113.674C72.6826 114.355 74.307 115.378 75.3899 116.059C75.9314 116.4 76.4729 116.741 76.4729 116.741L76.6747 117.621C77.2162 117.962 76.8766 118.501 77.4181 118.842C78.1614 120.063 78.9048 121.284 79.4462 121.625L80.7217 129.208L80.9236 130.088L81.8046 129.889L88.9172 130.599C91.2208 130.542 93.7263 131.365 96.2317 132.189C96.7732 132.53 97.3146 132.87 98.1957 132.672L98.7372 133.012C99.2786 133.353 99.2786 133.353 99.8201 133.694C100.903 134.375 101.986 135.057 102.729 136.278C104.895 137.641 107.061 139.004 109.227 140.367C109.97 141.588 110.714 142.809 110.915 143.69C111.659 144.911 112.402 146.132 111.723 147.211L111.778 155.532L111.346 171.833L139.291 194.693L131.829 200.544C129.048 202.56 126.066 203.696 123.285 205.713C122.945 206.253 122.404 205.912 122.064 206.451C122.064 206.451 122.064 206.451 121.183 206.65C121.183 206.65 120.844 207.19 120.302 206.849C119.963 207.389 118.742 208.127 118.402 208.667C118.063 209.206 117.384 210.286 117.044 210.825C116.704 211.365 116.704 211.365 116.365 211.904L116.025 212.444L115.686 212.983C114.529 216.022 113.373 219.061 110.794 221.958C109.775 223.577 109.096 224.656 107.334 225.054C105.571 225.451 104.351 226.19 102.791 227.468C101.91 227.667 100.147 228.064 99.2664 228.263C99.872 230.904 98.6513 231.643 97.9722 232.722C97.293 233.801 97.1553 235.221 97.3572 236.101L97.2836 239.822L97.559 236.982C97.6968 235.562 97.4949 234.681 98.174 233.602C98.8532 232.523 100.074 231.785 100.955 231.586C102.176 230.847 103.057 230.648 104.479 230.79C105.7 230.052 107.462 229.654 109.022 228.376C109.362 227.837 109.903 228.177 110.243 227.638C110.582 227.098 110.582 227.098 111.463 226.899C111.803 226.36 112.482 225.281 112.822 224.741C114.52 222.043 116.557 218.805 117.714 215.767L118.053 215.227C118.053 215.227 118.053 215.227 118.393 214.687C118.393 214.687 118.732 214.148 119.072 213.608C119.412 213.069 120.091 211.989 120.43 211.45C120.77 210.91 121.449 209.831 122.33 209.632L122.67 209.092L123.551 208.894C123.891 208.354 124.432 208.695 124.772 208.155C128.094 206.479 130.535 205.003 133.858 203.327L142.2 197.277C142.476 194.437 143.292 191.938 143.568 189.098L143.907 188.559C143.907 188.559 143.907 188.559 144.247 188.019L144.587 187.48C144.926 186.94 144.724 186.06 144.522 185.179C144.66 183.759 144.798 182.339 144.596 181.459L144.202 173.678L144 172.797C148.809 173.564 153.618 174.33 154.701 175.012C155.444 176.233 158.353 178.817 158.353 178.817L163.098 177.283L167.439 173.989L173.946 172.057L180.655 171.006C183.702 172.17 187.29 173.675 190.337 174.84C191.081 176.061 192.026 178.162 192.769 179.383C193.173 181.144 194.458 182.706 194.32 184.126C194.32 184.126 194.32 184.126 194.522 185.006L194.182 185.546C193.843 186.085 193.843 186.085 193.503 186.625C193.164 187.165 193.026 188.585 192.686 189.124C192.209 191.084 192.071 192.504 191.594 194.463C192.2 197.104 192.805 199.745 194.632 201.648C195.375 202.869 195.237 204.289 195.099 205.709C194.962 207.129 194.283 208.208 194.145 209.628C194.824 208.549 194.962 207.129 195.641 206.05C195.779 204.63 195.916 203.21 195.173 201.989C194.228 199.887 193.622 197.246 192.677 195.145C193.154 193.185 193.292 191.765 193.769 189.806C194.109 189.266 194.247 187.846 194.586 187.307C194.926 186.767 194.926 186.767 195.265 186.227L195.605 185.688C195.605 185.688 195.944 185.148 195.403 184.807C194.999 183.047 194.596 181.286 193.311 179.724C192.907 177.963 191.622 176.401 190.879 175.18C192.099 174.442 193.32 173.703 194.88 172.425C195.22 171.886 195.761 172.227 195.559 171.346C195.899 170.807 195.899 170.807 195.697 169.926C195.495 169.046 195.835 168.506 195.973 167.086L200.653 163.252L209.326 162.684L213.796 163.99C215.218 164.132 216.843 165.154 218.605 164.756C219.825 164.018 221.386 162.74 222.065 161.661L225.185 159.105L241.906 167.368L247.449 175.376C246.697 180.176 245.604 185.515 244.31 189.974C245.054 191.195 244.374 192.274 243.695 193.353C243.016 194.432 242.878 195.852 242.199 196.931C241.722 198.891 241.245 200.851 240.428 203.35C240.088 203.889 240.088 203.889 240.29 204.77L239.95 205.309C239.473 207.269 239.335 208.689 238.858 210.648C238.72 212.068 238.041 213.148 237.903 214.568L237.564 215.107C237.564 215.107 237.564 215.107 237.224 215.647L236.885 216.186C236.545 216.726 236.206 217.266 235.866 217.805C235.187 218.884 235.049 220.304 234.37 221.384C233.691 222.463 233.012 223.542 232.13 223.741C230.029 224.678 227.927 225.615 226.367 226.893C223.861 226.07 221.356 225.246 218.85 224.423C218.85 224.423 218.309 224.082 217.969 224.622C217.969 224.622 217.969 224.622 217.088 224.821L216.749 225.36C216.409 225.9 215.528 226.099 215.528 226.099C214.308 226.837 213.426 227.036 211.664 227.434L202.844 235.443L194.979 239.533L182.314 236.835L171.145 230.56L147.494 234.508L171.145 230.56L182.314 236.835L195.521 239.873L203.725 235.244L212.545 227.235C213.426 227.036 215.189 226.638 216.409 225.9C217.29 225.701 217.63 225.161 218.511 224.963C218.85 224.423 219.392 224.764 220.273 224.565C222.778 225.388 224.742 225.871 227.248 226.695L226.908 227.234L225.871 240.894L241.371 249.896L251.044 259.75C251.026 271.791 250.465 283.492 249.905 295.192L241.14 311.522L249.519 325.835L241.14 311.522L249.905 295.192C250.465 283.492 251.026 271.791 251.044 259.75L241.371 249.896L224.65 241.633L234.002 239.985L238.334 242.711L243.684 243.818L247.007 242.143L250.467 239.047C251.348 238.848 251.348 238.848 252.229 238.649C252.229 238.649 252.569 238.11 253.11 238.45C253.11 238.45 253.11 238.45 253.991 238.252C255.414 238.394 255.955 238.734 257.038 239.416C257.038 239.416 257.038 239.416 256.698 239.955L251.54 245.749L247.741 249.384L246.924 251.884L255.184 255.575C257.487 255.518 259.451 256.001 261.213 255.603C263.517 255.546 265.82 255.489 267.582 255.092C268.464 254.893 268.464 254.893 269.345 254.694C269.684 254.154 270.024 253.615 270.565 253.955C271.446 253.757 272.125 252.677 273.007 252.479C275.108 251.541 276.87 251.144 278.972 250.206L288.324 248.559C290.086 248.161 291.307 247.423 293.069 247.025C294.29 246.286 296.052 245.889 297.612 244.611C298.631 242.992 298.768 241.572 299.246 239.612C299.383 238.192 299.861 236.233 301.081 235.494C302.302 234.756 303.862 233.478 305.083 232.74C306.304 232.001 308.066 231.603 309.488 231.745L319.648 233.619L325.687 227.627L334.635 224.218L325.145 227.286L319.106 233.278L309.286 230.865C307.322 230.382 306.102 231.121 304.339 231.518C303.119 232.257 301.559 233.535 300.338 234.273C299.998 234.813 298.778 235.551 298.438 236.091C298.099 236.631 297.961 238.051 297.621 238.59C297.484 240.01 297.006 241.97 296.327 243.049C295.648 244.128 293.546 245.065 291.784 245.463C290.022 245.861 288.801 246.599 287.039 246.997L277.687 248.644C275.586 249.582 273.823 249.979 271.722 250.917C270.841 251.116 269.62 251.854 269.28 252.394C268.941 252.933 268.06 253.132 268.06 253.132C267.72 253.672 267.179 253.331 266.839 253.87C265.077 254.268 262.773 254.325 260.47 254.382C258.166 254.439 256.202 253.956 254.44 254.354L246.722 251.003L248.08 248.845L251.88 245.21L257.038 239.416C257.919 239.217 258.8 239.018 259.14 238.479L260.36 237.74C261.241 237.541 261.581 237.002 262.462 236.803C263.683 236.064 264.362 234.985 265.243 234.786C265.922 233.707 266.601 232.628 267.28 231.549L267.354 227.828L268.712 225.67C269.052 225.13 268.85 224.25 268.309 223.909C267.363 221.808 266.079 220.246 265.133 218.144L272.723 216.894ZM196.727 117.842L195.516 112.56L195.864 106L196.278 101.74L199.315 108.925L199.517 109.805C199.517 109.805 200.059 110.146 199.719 110.685L200.26 111.026C200.802 111.367 201.343 111.708 202.087 112.929C202.087 112.929 200.728 115.087 199.847 115.286C198.627 116.024 196.323 116.081 196.323 116.081L196.727 117.842L203.573 115.371C203.573 115.371 206.62 116.535 208.786 117.898C210.952 119.261 215.559 119.147 215.559 119.147C216.101 119.488 216.642 119.829 216.101 119.488C216.101 119.488 216.303 120.369 215.963 120.908C216.165 121.789 216.165 121.789 216.367 122.669C216.569 123.549 216.431 124.969 216.633 125.85C216.293 126.389 216.835 126.73 216.495 127.27C215.816 128.349 215.678 129.769 214.861 132.268C214.044 134.767 208.152 133.319 208.152 133.319L199.415 131.587C199.012 129.826 197.865 126.845 198.204 126.305C198.544 125.765 197.057 123.323 196.314 122.102L196.727 117.842ZM195.699 125.482L194.808 131.701L189.458 130.594L191.422 131.076C191.422 131.076 190.678 129.855 191.358 128.776C191.697 128.236 192.716 126.618 193.055 126.078C193.937 125.879 194.276 125.34 195.157 125.141L195.699 125.482ZM148.314 143.12L152.316 140.365L154.619 140.308L153.738 140.507C154.142 142.268 157.253 145.732 159.281 148.515C158.4 148.714 156.978 148.572 156.097 148.771C154.876 149.509 153.114 149.907 151.893 150.645L147.626 150.22L146.139 147.777L148.314 143.12ZM144.716 147.635L145.864 150.617L150.673 151.384C152.435 150.986 153.655 150.248 155.417 149.85C156.298 149.651 158.061 149.254 159.144 149.935C159.685 150.276 159.345 150.815 159.887 151.156C160.089 152.037 161.034 154.138 160.557 156.098L154.453 159.79C153.572 159.989 149.369 161.863 147.469 163.681C145.909 164.959 142.247 167.174 140.687 168.452C140.145 168.112 139.943 167.231 139.402 166.89L136.832 163.767L138.879 154.508L144.716 147.635ZM139.577 141.388L147.369 141.018L146.35 142.637C146.35 142.637 143.367 143.773 140.587 145.79C137.806 147.806 137.264 147.465 137.264 147.465C138.081 144.966 138.558 143.007 139.577 141.388ZM130.069 156.497C129.729 157.036 129.931 157.917 129.591 158.456C129.591 158.456 129.591 158.456 129.793 159.337L125.728 159.791L123.02 158.088L121.937 157.406C122.277 156.866 123.158 156.668 123.498 156.128C123.498 156.128 123.498 156.128 123.837 155.588L125.058 154.85C125.058 154.85 126.958 153.032 129.059 152.095C130.62 150.817 131.501 150.618 131.501 150.618C130.821 151.697 130.684 153.117 130.344 153.657C129.867 155.616 129.867 155.616 130.069 156.497ZM140.083 121.367L143.873 123.752L147.461 125.257L143.597 126.592C143.597 126.592 143.322 129.432 142.441 129.631C142.101 130.17 141.083 131.789 140.403 132.868C138.577 130.965 136.751 129.063 134.383 126.819L140.083 121.367ZM108.595 111.343C110.219 112.366 112.045 114.268 113.67 115.29C114.753 115.972 114.955 116.852 115.496 117.193C116.239 118.414 116.781 118.755 117.864 119.437C116.781 118.755 115.9 118.954 114.817 118.272C114.817 118.272 114.817 118.272 114.275 117.932C114.275 117.932 113.936 118.471 113.394 118.13C112.513 118.329 112.513 118.329 111.632 118.528L110.072 119.806L108.925 116.824C108.723 115.944 108.521 115.064 108.319 114.183C108.117 113.303 107.576 112.962 107.374 112.082C107.512 110.662 107.851 110.122 108.53 109.043C108.053 111.002 108.595 111.343 108.595 111.343ZM63.6356 50.6565L59.6434 47.3908L54.9721 45.2043L52.1364 38.8999L55.67 32.0839L55.5417 27.4832L54.3304 22.201L57.7263 16.805C58.8092 17.4865 59.6903 17.2877 60.2318 17.6285C62.5353 17.5715 63.9579 17.7135 65.9218 18.1962C66.4633 18.5369 67.8858 18.6788 68.0877 19.5592C68.6292 19.9 69.3725 21.1211 69.914 21.4618C72.4836 24.5856 74.1722 27.9082 76.4022 31.5716L79.5039 41.0568L71.2255 49.4066C70.0048 50.145 69.3257 51.2242 68.4446 51.4231L67.5636 51.6219C67.5636 51.6219 67.0221 51.2811 66.4806 50.9404C65.26 51.6788 64.7185 51.338 63.6356 50.6565ZM62.8829 55.456L64.0393 52.4172C64.5808 52.758 65.1223 53.0988 66.0033 52.8999C66.0033 52.8999 68.8484 53.1838 69.9313 53.8653C69.5917 54.4049 69.2521 54.9445 69.454 55.8249C68.9767 57.7844 68.2975 58.8636 67.8202 60.8232L63.1489 58.6367L62.8829 55.456ZM52.2821 75.904C52.6217 75.3644 52.6217 75.3644 52.9612 74.8248L53.0989 73.4048L53.0348 71.1045L54.1913 68.0657L55.3477 65.0269C55.4854 63.607 56.3665 63.4081 57.2476 63.2093C58.8078 61.9312 60.5699 61.5336 62.6716 60.5963L67.8844 63.1235C67.5448 63.6631 68.0863 64.0039 68.2881 64.8843C68.49 65.7646 69.0315 66.1054 69.573 66.4462C70.3163 67.6673 70.5182 68.5476 71.6011 69.2292C72.8859 70.7911 73.8312 72.8925 75.6574 74.7952L76.7404 75.4767C76.0612 76.5559 75.382 77.6351 74.9047 79.5947C74.5651 80.1343 73.8859 81.2135 73.5464 81.7531C73.2068 82.2927 73.2068 82.2927 72.8672 82.8323C72.5276 83.3719 71.9861 83.0311 71.4447 82.6904C68.0581 82.0658 65.0112 80.9016 61.9643 79.7374L51.3275 79.8231C50.5841 78.602 51.6029 76.9832 52.2821 75.904ZM82.3194 103.847L73.4353 109.556C73.4353 109.556 72.0128 109.414 71.4713 109.073C69.8469 108.051 67.8829 107.568 66.2585 106.546C63.0097 104.501 59.2195 102.116 55.9707 100.071L55.4292 99.7307L39.6531 93.5689C40.8738 92.8305 42.9755 91.8932 44.1961 91.1547C45.4168 90.4163 45.2149 89.5359 45.3526 88.116C45.1507 87.2356 45.8299 86.1564 45.628 85.276L51.5294 80.7035L62.1662 80.6177C65.2131 81.7819 68.5996 82.4065 71.9861 83.0312C72.5276 83.3719 72.5276 83.3719 73.4086 83.1731C73.7482 82.6335 73.7482 82.6335 74.0878 82.0939C74.4274 81.5543 75.1066 80.4751 75.4462 79.9355C76.1254 78.8563 76.8045 77.777 77.2818 75.8175L84.119 79.367C84.6605 79.7078 84.6605 79.7078 85.2019 80.0485L85.3303 84.6492C86.0736 85.8703 86.2755 86.7507 87.0189 87.9718C87.5603 88.3126 87.2207 88.8522 87.4226 89.7326C87.083 90.2722 87.2849 91.1525 86.9453 91.6921C88.3678 91.834 88.9093 92.1748 89.9922 92.8563C90.5337 93.1971 91.0752 93.5379 90.7356 94.0775C90.396 94.6171 90.5979 95.4974 90.5979 95.4974C90.1206 97.457 89.1018 99.0758 88.083 100.695C85.1003 101.831 82.3194 103.847 82.3194 103.847ZM88.0189 98.3943C88.6981 97.3151 88.8358 95.8951 89.5149 94.8159C89.8545 94.2763 90.1941 93.7367 89.9922 92.8563C89.7904 91.976 89.2489 91.6352 88.7074 91.2944C87.6245 90.6129 86.7434 90.8117 85.6605 90.1302C86.0001 89.5906 86.3397 89.051 85.7982 88.7103C86.1378 88.1707 85.9359 87.2903 85.3945 86.9495C84.3115 86.268 84.1096 85.3876 83.3663 84.1665L83.238 79.5659C84.5228 81.1277 86.1472 82.15 87.432 83.7119C89.2583 85.6146 91.0845 87.5172 92.0298 89.6187C92.0298 89.6187 93.241 94.9009 92.9014 95.4405C93.6448 96.6616 92.0846 97.9397 92.0846 97.9397C92.0846 97.9397 89.2395 97.6558 88.0189 98.3943ZM82.8328 122.25C82.0894 121.029 81.3461 119.808 80.8046 119.467C80.8046 119.467 80.2631 119.126 80.6027 118.586C80.6027 118.586 80.6027 118.586 79.8594 117.365C79.3179 117.025 79.116 116.144 79.116 116.144C82.4384 114.468 85.357 111.032 88.6793 109.356L97.9671 105.408C97.8294 106.828 97.6917 108.248 97.2144 110.208C96.8749 110.747 97.0767 111.628 96.3975 112.707C96.058 113.247 95.3788 114.326 95.5807 115.206L92.9281 121.823L95.5807 115.206C95.9202 114.667 96.058 113.247 96.3975 112.707C97.2786 112.508 97.4163 111.088 97.7559 110.549C98.2332 108.589 98.3709 107.169 98.8482 105.21C101.556 106.913 104.804 108.958 107.512 110.662C106.832 111.741 106.695 113.161 106.897 114.041C106.557 114.581 107.099 114.922 107.099 114.922C107.64 115.262 107.3 115.802 107.842 116.143C108.044 117.023 108.585 117.364 108.787 118.244L109.934 121.226L107.695 123.583L104.033 125.799L98.1409 124.351L93.2677 121.284L82.8328 122.25ZM113.063 157.094L113.549 149.114C113.687 147.694 112.944 146.473 112.54 144.712C111.797 143.491 111.053 142.27 110.31 141.049C108.144 139.686 106.318 137.783 104.152 136.42C103.069 135.738 101.986 135.057 101.243 133.836L100.701 133.495C100.16 133.154 100.16 133.154 99.6182 132.813C99.0768 132.473 98.5353 132.132 97.9938 131.791C95.4884 130.968 92.9829 130.144 90.6793 130.201L84.4478 129.293L83.3742 122.591L92.9281 121.823L97.8013 124.89L103.693 126.338L107.355 124.123L111.155 120.488C112.036 120.289 112.036 120.289 112.917 120.09L113.798 119.891C113.798 119.891 114.138 119.352 114.679 119.692C116.102 119.834 117.185 120.516 117.726 120.856C122.122 125.883 126.316 130.029 130.712 135.055L130.17 134.715C130.17 134.715 132.199 137.498 132.061 138.918C131.923 140.338 133.208 141.899 133.208 141.899L134.832 142.922L134.557 145.762L125.535 152.89C125.195 153.43 125.195 153.43 124.314 153.629L123.975 154.168C123.975 154.168 123.975 154.168 123.635 154.708L120.515 157.264L119.973 156.923C119.973 156.923 119.432 156.583 119.092 157.122C117.67 156.98 115.366 157.037 113.063 157.094ZM141.466 190.036C140.989 191.995 140.649 192.535 140.713 194.835L134.555 190.206C135.978 190.348 137.942 190.831 139.704 190.433C140.246 190.774 140.585 190.234 141.466 190.036ZM142.292 181.516C142.155 182.936 142.357 183.816 142.219 185.236C142.421 186.117 142.081 186.656 141.742 187.196L141.402 187.735C141.062 188.275 141.062 188.275 141.062 188.275C140.181 188.474 138.961 189.212 137.538 189.07C135.776 189.468 134.491 187.906 134.491 187.906L131.848 188.503L112.631 173.395L113.264 157.974C115.568 157.918 117.33 157.52 119.634 157.463C119.634 157.463 120.175 157.804 120.515 157.264L121.056 157.605L122.681 158.627L125.388 160.331L129.252 158.996C129.454 159.876 129.995 160.217 130.537 160.558C131.078 160.899 131.62 161.239 132.161 161.58C133.244 162.262 134.327 162.943 134.868 163.284L137.979 166.748C138.723 167.97 139.806 168.651 140.549 169.872C141.091 170.213 141.292 171.093 141.834 171.434C141.494 171.974 142.036 172.315 141.696 172.854L142.292 181.516ZM173.744 171.177L167.237 173.108L162.355 176.062L158.151 177.937C157.61 177.596 155.784 175.693 155.04 174.472C154.297 173.251 146.643 172.201 143.798 171.917C145.358 170.639 148.818 167.543 150.718 165.725C152.278 164.447 155.601 162.772 156.821 162.033L163.805 158.142L168.064 164.589C169.688 165.611 171.854 166.974 173.478 167.996C175.103 169.018 177.608 169.842 179.572 170.325L173.744 171.177ZM178.829 169.104C176.865 168.621 174.901 168.138 173.276 167.116C171.652 166.094 170.028 165.071 168.403 164.049L163.943 156.722C163.741 155.842 163.613 151.241 162.668 149.14C162.466 148.259 161.117 144.397 160.107 139.995L171.424 138.83C174.47 139.995 178.6 141.84 180.023 141.982C181.445 142.124 183.813 144.368 185.979 145.731L183.941 148.968C183.941 148.968 179.94 151.723 179.6 152.263C179.6 152.263 178.783 154.762 178.985 155.642L178.783 154.762L178.233 160.442C178.233 160.442 180.123 164.645 180.866 165.866C181.61 167.087 184.721 170.552 185.464 171.773C183.84 170.75 181.334 169.927 178.829 169.104ZM222.404 161.121C221.184 161.86 220.165 163.478 218.944 164.217C217.522 164.075 215.558 163.592 214.475 162.911L210.005 161.605L200.791 161.832L196.11 165.666C196.312 166.547 195.973 167.086 195.835 168.506C195.495 169.046 195.495 169.046 195.697 169.926C195.358 170.466 195.358 170.466 195.018 171.005C193.797 171.744 192.237 173.022 191.017 173.76L188.245 169.756L184.73 164.531L181.078 160.726L181.151 157.005C181.151 157.005 182.17 155.387 182.51 154.847C183.189 153.768 185.63 152.291 185.63 152.291C185.63 152.291 188.071 150.814 188.75 149.735C189.09 149.195 189.971 148.996 189.971 148.996L196.68 147.945L204.674 148.456L226.608 159.247L222.404 161.121ZM284.581 216.07L282.69 211.867L285.269 208.97C285.811 209.311 286.013 210.192 287.095 210.873C288.38 212.435 289.463 213.116 290.748 214.678L292.235 217.121L292.978 218.342L292.501 220.301C290.739 220.699 289.858 220.898 288.095 221.296L284.581 216.07ZM288.61 195.253C288.748 193.833 288.886 192.414 289.023 190.994L289.987 181.054L290.052 183.354L290.318 186.535C290.318 186.535 290.042 189.375 290.584 189.716C290.786 190.596 290.648 192.016 290.85 192.896C291.052 193.777 290.372 194.856 290.574 195.736L288.61 195.253ZM287.72 201.473C287.858 200.053 288.876 198.434 288.335 198.093C288.674 197.554 289.693 195.935 290.033 195.395L290.372 194.856L293.887 200.081C294.089 200.961 294.631 201.302 294.832 202.183L295.034 203.063L295.576 203.404L296.044 207.465L296.714 212.406C294.887 210.503 293.061 208.601 291.235 206.698C290.491 205.477 288.867 204.455 288.124 203.234C287.922 202.353 287.38 202.013 287.72 201.473ZM309.526 207.663C309.728 208.543 311.554 210.446 311.958 212.207L297.255 212.747L296.925 207.266L296.659 204.085L300.724 203.631L304.451 203.716L305.194 204.937C305.735 205.277 305.937 206.158 306.479 206.499C307.02 206.839 308.443 206.981 309.526 207.663ZM317.198 196.672L323.715 188.72L324.468 183.92L327.992 183.125L328.194 184.005L328.395 184.886C328.597 185.766 328.799 186.646 329.001 187.527C329.405 189.288 329.267 190.707 328.79 192.667C328.652 194.087 328.175 196.047 328.579 197.807C328.982 199.568 329.386 201.329 330.671 202.891C332.158 205.333 333.644 207.775 335.131 210.217L315.821 210.872C314.738 210.19 313.114 209.168 313.114 209.168C312.573 208.827 310.003 205.703 310.003 205.703C310.343 205.164 311.499 202.125 313.197 199.427L317.198 196.672ZM312.518 200.506C310.141 204.283 309.663 206.243 309.324 206.782C307.901 206.641 307.36 206.3 306.277 205.618C305.735 205.277 305.194 204.937 305.533 204.397L304.79 203.176L301.064 203.091L296.998 203.546C296.457 203.205 296.255 202.324 295.714 201.984C295.512 201.103 294.97 200.763 294.768 199.882L291.253 194.657C292.135 194.458 292.814 193.379 294.034 192.64L296.136 191.703L298.779 191.107C299.66 190.908 300.541 190.709 301.422 190.51C302.303 190.311 302.303 190.311 302.303 190.311C302.845 190.652 303.184 190.112 303.726 190.453C304.607 190.254 305.148 190.595 306.231 191.277L312.518 200.506ZM300.762 179.548C300.964 180.428 304.543 187.954 305.148 190.595C304.607 190.254 303.726 190.453 303.184 190.112C302.643 189.772 302.303 190.311 301.762 189.971C300.881 190.169 300.881 190.169 300.541 190.709C299.66 190.908 298.779 191.107 297.898 191.305L295.255 191.902L294.915 192.442C294.915 192.442 293.089 190.539 292.548 190.198C292.006 189.857 291.336 184.916 291.336 184.916C291.336 184.916 290.731 182.275 291.07 181.735C290.868 180.855 292.025 177.816 292.025 177.816L291.144 178.015C292.025 177.816 293.787 177.419 294.668 177.22C295.549 177.021 297.311 176.623 298.734 176.765C298.734 176.765 300.22 179.207 300.762 179.548ZM283.242 161.743C284.124 161.544 285.005 161.345 285.886 161.146C286.767 160.947 286.767 160.947 287.648 160.749C288.189 161.089 288.529 160.55 289.07 160.89C289.951 160.692 290.832 160.493 291.172 159.953C291.851 158.874 292.53 157.795 292.328 156.914C292.466 155.494 292.062 153.734 292.2 152.314L301.828 147.826L308.059 148.735L310.766 150.438L315.777 152.085L314.961 154.584L314.621 155.124C311.5 157.68 308.921 160.577 306.342 163.474L295.962 172.761C295.081 172.96 293.659 172.818 292.438 173.556C291.016 173.414 289.795 174.153 288.033 174.55C288.033 174.55 287.693 175.09 287.152 174.749C286.61 174.409 286.069 174.068 285.527 173.727C284.986 173.386 284.444 173.046 284.243 172.165C283.839 170.404 282.554 168.843 282.15 167.082L283.71 165.804L283.509 164.923L281.82 161.601C282.361 161.942 282.903 162.282 283.242 161.743ZM251.176 175.461L250.974 174.581L247.459 169.356C252.066 169.242 257.013 168.588 261.62 168.474L260.739 168.673C260.06 169.752 255.113 170.406 253.755 172.564C251.855 174.382 251.176 175.461 251.176 175.461ZM254.331 237.712C253.789 237.371 253.789 237.371 254.331 237.712C253.789 237.371 253.789 237.371 254.331 237.712C253.45 237.911 253.45 237.911 253.45 237.911C253.45 237.911 253.11 238.45 252.569 238.11C252.229 238.649 251.687 238.309 250.806 238.507L247.346 241.603L244.024 243.279L238.674 242.171L234.342 239.445L224.99 241.093L226.027 227.433C228.469 225.956 230.029 224.678 232.672 224.082C234.434 223.684 235.113 222.605 235.251 221.185C235.93 220.105 236.068 218.685 236.747 217.606C237.087 217.067 237.426 216.527 237.766 215.987C237.766 215.987 237.766 215.987 238.105 215.448L238.445 214.908C238.785 214.369 238.785 214.369 239.124 213.829C239.803 212.75 239.941 211.33 240.079 209.91C240.216 208.49 240.694 206.53 240.831 205.11L243.805 209.995C245.09 211.557 246.035 213.658 246.98 215.76C248.806 217.662 250.431 218.685 251.716 220.247C253.34 221.269 255.506 222.632 257.13 223.654C257.332 224.535 258.075 225.756 258.277 226.636C258.479 227.516 258.883 229.277 258.543 229.817C257.864 230.896 257.525 231.436 257.727 232.316C257.387 232.856 257.047 233.395 257.589 233.736C256.91 234.815 257.112 235.696 256.974 237.115C256.295 238.195 255.212 237.513 254.331 237.712ZM257.919 239.217L259.681 238.819C258.8 239.018 258.259 238.677 257.919 239.217ZM267.969 224.449C268.171 225.329 268.171 225.329 268.373 226.21L268.235 227.63L268.161 231.35C267.482 232.429 266.803 233.508 266.124 234.587C265.445 235.667 264.224 236.405 263.885 236.945C263.003 237.144 262.664 237.683 261.783 237.882C261.581 237.002 261.719 235.582 260.975 234.361C260.773 233.48 260.572 232.6 260.37 231.719C260.507 230.3 260.306 229.419 259.902 227.658C259.7 226.778 259.498 225.898 258.755 224.677L264.794 218.684C265.739 220.786 267.024 222.347 267.969 224.449ZM264.931 217.264L258.553 223.796C256.928 222.774 255.304 221.752 254.019 220.19C252.395 219.167 250.568 217.265 249.284 215.703C248.338 213.601 247.054 212.04 246.108 209.938L242.594 204.713C243.41 202.214 244.227 199.714 244.705 197.755C245.384 196.676 245.522 195.256 246.201 194.176C246.88 193.097 247.018 191.677 247.697 190.598C248.174 188.639 248.651 186.679 249.468 184.18L252.121 177.563L257.82 172.11L263.722 167.537C267.787 167.083 272.394 166.969 276.46 166.514C278.892 171.058 281.526 176.482 283.958 181.026L283.131 189.546C282.856 192.385 282.782 196.106 282.507 198.946L282.709 199.826C282.571 201.246 282.571 201.246 282.773 202.126C282.094 203.206 281.819 206.045 281.139 207.125C281.002 208.545 280.864 209.965 281.066 210.845C280.726 211.385 282.553 213.287 282.553 213.287L284.581 216.07L284.507 219.791L278.01 215.701L274.082 214.736L264.931 217.264Z" fill="url(#paint0_linear_1348_2924)"/>
</g>
<defs>
<filter id="filter0_d_1348_2924" x="-94.8339" y="0.0986328" width="486.329" height="339.736" filterUnits="userSpaceOnUse" color-interpolation-filters="sRGB">
<feFlood flood-opacity="0" result="BackgroundImageFix"/>
<feColorMatrix in="SourceAlpha" type="matrix" values="0 0 0 0 0 0 0 0 0 0 0 0 0 0 0 0 0 0 127 0" result="hardAlpha"/>
<feOffset dx="4" dy="4"/>
<feGaussianBlur stdDeviation="5"/>
<feComposite in2="hardAlpha" operator="out"/>
<feColorMatrix type="matrix" values="0 0 0 0 0.580392 0 0 0 0 1 0 0 0 0 0.364706 0 0 0 1 0"/>
<feBlend mode="normal" in2="BackgroundImageFix" result="effect1_dropShadow_1348_2924"/>
<feBlend mode="normal" in="SourceGraphic" in2="effect1_dropShadow_1348_2924" result="shape"/>
</filter>
<linearGradient id="paint0_linear_1348_2924" x1="-37.0853" y1="-51.1491" x2="449.651" y2="304.472" gradientUnits="userSpaceOnUse">
<stop offset="0.149839" stop-color="#FFE974"/>
<stop offset="0.339055" stop-color="#00FF00"/>
<stop offset="0.676651" stop-color="#0F9A25"/>
</linearGradient>
</defs>
</svg>
