<svg width="810" height="316" viewBox="0 0 810 316" fill="none" xmlns="http://www.w3.org/2000/svg">
<g filter="url(#filter0_d_1348_2931)">
<path d="M891.233 179.497L871.907 181.748L857.463 180.704L852.212 173.121L833.73 171.853L833.16 171.903L820.248 188.524L800.899 183.887L799.292 171.97L799.242 171.4L798.623 170.879L787.302 166.12C787.624 163.221 787.947 160.323 788.27 157.424C788.22 156.854 788.122 155.714 788.642 155.095C788.543 153.955 788.494 153.385 788.395 152.246C788.345 151.676 788.345 151.676 787.776 151.725L796.992 152.074L801.475 157.427L813.119 159.288L835.294 156.79L846.148 149.533L856.181 152.682L865.15 150.182L877.117 149.144L888.933 159.602L877.068 148.574L865.101 149.612L856.132 152.112L846.098 148.964L835.245 156.22L813.021 158.148L801.376 156.287L796.893 150.935L786.488 150.115C785.819 149.024 784.63 148.553 784.01 148.033C781.583 146.521 779.155 145.009 776.728 143.497C773.631 140.895 768.776 137.871 767.636 137.97C765.406 138.738 740.336 127.707 740.336 127.707L722.723 116.604C722.723 116.604 702.728 117.764 697.55 117.638C693.512 117.415 666.284 114.609 653.55 113.417L667.229 99.0251L667.749 98.4059L667.7 97.836L667.654 84.0607L681.853 69.0499L682.374 68.4306L682.324 67.8607L681.263 49.0062C680.917 45.0172 680.051 41.6475 680.275 37.6092C680.127 35.8996 679.929 33.6202 680.35 31.8612C680.301 31.2914 681.391 30.6227 682.482 29.954C683.002 29.3347 684.092 28.666 684.662 28.6166C691.204 24.6044 698.365 21.1126 704.906 17.1004C698.315 20.5428 691.154 24.0345 684.613 28.0467C683.522 28.7154 682.953 28.7648 681.862 29.4335C681.342 30.0528 680.202 30.1517 679.731 31.3408C679.359 33.6696 679.507 35.3792 679.656 37.0887C680.001 41.0777 680.347 45.0667 680.644 48.4858L681.135 67.3897L666.366 82.45L665.796 82.4994L658.338 82.5721L652.244 78.5075C650.634 79.7955 648.973 80.5136 647.363 81.8016L642.481 85.0956L634.279 89.8259L623.156 87.3459L616.195 79.9116L604.156 73.492L605.967 61.278L588.354 50.1745L605.397 61.3274L603.586 73.5414L615.626 79.961L622.635 87.9652L633.759 90.4452L641.961 85.7149L646.842 82.4208C648.453 81.1329 650.113 80.4147 651.724 79.1268L657.768 82.6215L665.796 82.4994L665.223 95.7543L649.363 111.483C648.223 111.582 647.604 111.062 647.604 111.062L635.608 131.623C635.608 131.623 628.395 147.75 623.935 149.285C618.905 150.87 567.644 149 567.644 149L557.288 148.75L556.718 148.799L536.032 141.981L522.58 139.129L525.307 130.855L523.946 121.787L531.331 114.256L542.432 109.849L544.539 101.054L546.077 92.3085L553.66 87.0577L546.077 92.3085L544.539 101.054L542.382 109.279L531.282 113.687L523.327 121.266L524.688 130.334L521.391 138.658L509.671 142.545L504.792 132.634L506.949 124.409L506.9 123.839L506.33 123.889L478.21 124.031L505.81 124.508L503.652 132.733L508.58 143.214L502.51 146.037L496.887 140.783L489.38 140.286L481.922 140.359L476.273 141.423L470.081 136.219C470.601 135.599 471.121 134.98 471.072 134.41C471.642 134.361 471.592 133.791 471.592 133.791C472.113 133.172 472.113 133.172 472.633 132.552C473.154 131.933 473.674 131.314 474.195 130.695C475.186 128.886 476.178 127.078 476.55 124.749C476.352 122.47 476.204 120.76 476.055 119.05C475.957 117.911 476.477 117.291 476.948 116.102C477.419 114.913 477.37 114.343 478.46 113.675C480.071 112.387 481.681 111.099 483.341 110.381L485.324 106.764L490.601 108.029L501.527 108.229L490.601 108.029L485.324 106.764L482.772 110.43C481.161 111.718 479.501 112.436 477.89 113.724C476.8 114.393 476.899 115.533 476.378 116.152C475.907 117.341 475.957 117.911 475.486 119.1C475.634 120.809 475.733 121.949 475.881 123.659C475.41 124.848 473.328 127.325 471.767 129.183C469.636 131.09 465.746 132.576 465.746 132.576L463.516 133.343C457.916 134.977 452.366 137.181 446.816 139.385C441.786 140.969 433.337 142.85 431.677 143.568C429.447 144.336 425.507 145.252 425.507 145.252C425.507 145.252 420.477 146.836 420.006 148.025C419.535 149.215 415.075 150.75 415.075 150.75L404.472 147.65L399.913 148.046L397.634 148.243L391.613 151.636L388.539 155.922L385.516 160.777L380.634 164.071C380.064 164.121 379.494 164.17 378.925 164.219C376.546 163.277 373.078 163.004 370.179 162.681C367.28 162.359 363.812 162.085 360.913 161.763L351.351 157.425L349.519 149.546L350.339 139.14L358.765 130.371L365.652 130.348L374.747 122.67L387.56 104.908L389.322 92.1246L398.044 86.775L401.911 78.4017L409.148 69.162L425.054 67.2083L409.098 68.5921L401.862 77.8318L397.425 86.2546L389.842 91.5053L387.51 104.339L374.128 122.149L365.033 129.828L357.576 129.9L349.15 138.669L342.71 130.616L339.442 119.416L325.644 112.575L339.442 119.416L343.231 129.996L349.72 138.62L348.949 149.595L350.781 157.474L360.343 161.812L352.389 169.392C350.679 169.54 349.019 170.258 347.359 170.976C346.789 171.026 345.699 171.694 345.178 172.314C344.608 172.363 344.658 172.933 344.088 172.982C343.518 173.032 343.518 173.032 342.998 173.651C341.858 173.75 341.338 174.369 340.198 174.468C338.538 175.186 336.258 175.384 335.168 176.052L329.321 174.837L328.728 167.999L320.826 162.943L319.663 156.154L320.061 147.507L322.492 135.814L320.061 147.507L319.663 156.154L320.826 162.943L328.728 167.999L329.321 174.837L329.371 175.407L329.941 175.358L332.938 176.82L332.368 176.869C331.229 176.968 330.659 177.018 329.47 176.547C328.33 176.646 327.19 176.744 326.051 176.843C325.481 176.893 325.481 176.893 325.481 176.893C315.174 177.212 305.585 179.192 296.517 180.553C295.377 180.652 293.668 180.8 292.528 180.899C292.528 180.899 291.388 180.998 290.199 180.527C287.87 180.155 286.062 179.163 283.733 178.791C279.596 177.427 274.839 175.543 271.173 172.991L267.556 171.008C267.556 171.008 265.797 170.586 264.088 170.734C262.948 170.833 257.101 169.618 255.342 169.196C253.014 168.824 251.205 167.833 249.397 166.841C248.778 166.321 249.249 165.132 249.15 163.992C249.621 162.803 249.571 162.233 250.042 161.044L250.266 157.006C250.167 155.866 250.068 154.726 249.97 153.587C249.92 153.017 249.871 152.447 249.251 151.926C249.251 151.926 248.632 151.406 248.583 150.836L247.964 150.316L241.771 145.111C240.532 144.071 239.343 143.6 238.674 142.509C238.055 141.989 237.436 141.468 236.866 141.518C236.247 140.997 235.107 141.096 234.488 140.576C231.49 139.113 229.112 138.171 226.684 136.659L213.578 137.796C209.068 138.761 205.079 139.107 200.57 140.073C200 140.122 199.43 140.172 198.86 140.221C198.291 140.27 197.721 140.32 197.151 140.369C196.011 140.468 194.871 140.567 193.732 140.666C191.403 140.294 189.124 140.491 187.885 139.45C183.748 138.087 179.66 137.293 175.622 137.069C173.293 136.697 170.964 136.325 169.304 137.043C167.074 137.811 165.364 137.959 163.134 138.726C161.474 139.444 160.334 139.543 158.674 140.261C156.965 140.41 155.305 141.128 154.115 140.657C152.926 140.186 151.167 139.764 150.499 138.674L146.882 136.691L150.499 138.674C151.688 139.145 152.926 140.186 154.115 140.657C155.874 141.078 157.535 140.36 158.674 140.261C160.334 139.543 161.474 139.444 163.134 138.726C167.644 137.761 171.484 135.706 175.622 137.069C179.709 137.863 183.797 138.657 187.934 140.02C189.173 141.061 192.072 141.384 193.781 141.236C194.921 141.137 196.061 141.038 197.2 140.939C197.77 140.89 198.34 140.84 198.91 140.791C199.48 140.741 200.05 140.692 200.619 140.643C205.129 139.677 209.068 138.761 213.627 138.366L226.734 137.229C229.161 138.741 232.159 140.204 234.537 141.146C235.156 141.666 236.296 141.567 236.915 142.088C237.535 142.608 238.105 142.559 238.724 143.079C239.962 144.12 241.151 144.591 241.82 145.681L248.013 150.886L248.632 151.406C249.202 151.357 249.251 151.926 249.251 151.926C249.301 152.496 249.35 153.066 249.97 153.587C250.068 154.726 250.167 155.866 250.266 157.006L248.903 161.143C248.432 162.332 247.911 162.951 248.01 164.091C248.109 165.231 247.068 166.469 248.307 167.51C250.734 169.022 253.063 169.394 256.011 170.287C258.389 171.229 261.337 172.121 263.617 171.924L264.187 171.874C264.806 172.395 264.905 173.534 265.946 172.296L264.905 173.534C261.212 177.299 258.09 181.015 254.397 184.78C251.275 188.496 247.582 192.261 244.46 195.976C243.419 197.215 242.899 197.834 242.428 199.023C242.477 199.593 241.387 200.262 240.296 200.931C238.735 202.788 236.555 204.126 234.423 206.033C230.112 209.278 225.8 212.522 221.439 215.197L220.869 215.247L220.349 215.866C218.267 218.343 216.235 221.39 214.153 223.867C212.071 226.344 209.42 228.871 207.289 230.778C206.768 231.397 206.198 231.447 205.628 231.496C205.628 231.496 204.489 231.595 203.919 231.644C202.209 231.793 200.45 231.371 198.122 230.999C194.034 230.205 190.516 229.362 186.998 228.519L155.833 213.423L130.539 206.431L129.969 206.48L115.104 207.196L101.605 190.568L101.555 189.998L100.985 190.048C100.415 190.097 99.7962 189.577 98.6565 189.675C98.6565 189.675 98.6565 189.675 98.0866 189.725C97.4673 189.204 96.2782 188.733 95.6589 188.213C93.8011 186.652 92.5131 185.041 91.2252 183.43C91.0769 181.721 90.8792 179.441 90.7309 177.732C90.0622 176.642 89.443 176.121 88.7743 175.031C88.1056 173.941 87.4863 173.42 85.7273 172.999C83.3491 172.056 80.401 171.164 78.0721 170.792L73.7866 167.719L65.957 170.12L49.5301 172.693L65.957 170.12L73.7866 167.719L78.0721 170.792C80.4504 171.734 83.3491 172.056 85.7273 172.999C86.9164 173.47 87.5357 173.99 88.2044 175.08C88.8731 176.171 89.4924 176.691 89.5912 177.831C89.7395 179.54 89.9372 181.82 90.0855 183.529C90.853 185.759 92.7108 187.32 94.5687 188.882L95.1879 189.402C82.4041 187.64 69.6202 185.878 56.8364 184.116C70.8094 186.349 84.2125 188.632 98.1855 190.865C98.1855 190.865 98.1855 190.865 98.7553 190.815C99.3252 190.766 99.3746 191.336 99.9445 191.286C100.514 191.237 99.9445 191.286 99.9445 191.286L110.347 205.312L102.27 204.864L97.7871 199.511L97.1678 198.991L96.598 199.04L84.9538 197.179L62.7296 199.107L51.8763 206.364L42.4127 203.166L33.4433 205.666L22.0463 206.654L10.2306 196.196L22.0957 207.224L34.112 206.756L43.1308 204.826L52.5944 208.024L63.4972 201.337L85.201 200.029L96.2752 201.939L100.758 207.291L101.378 207.812L101.948 207.762L113.493 208.484L114.633 208.385L129.646 209.379L154.371 216.421L185.015 232.136L185.585 232.086C189.722 233.45 193.81 234.243 197.898 235.037C200.226 235.409 202.555 235.782 204.835 235.584C205.974 235.485 207.684 235.337 209.393 235.188C211.054 234.47 212.144 233.802 213.234 233.133C216.456 230.557 219.107 228.03 221.189 225.553C223.271 223.076 225.352 220.599 227.434 218.122C231.746 214.877 236.107 212.203 240.419 208.958C242.55 207.051 244.73 205.713 246.861 203.806C247.902 202.568 248.993 201.899 249.984 200.09C250.504 199.471 250.975 198.282 252.066 197.613C252.586 196.994 253.107 196.375 253.107 196.375L263.611 198.334L288.164 196.779L289.874 196.631L296.86 197.747L288.757 203.617C287.146 204.905 286.056 205.574 284.445 206.862C282.785 207.58 281.175 208.868 279.514 209.586C277.854 210.304 276.194 211.022 274.583 212.31C274.014 212.36 273.493 212.979 272.973 213.598L273.022 214.168L272.452 214.218C271.882 214.267 271.932 214.837 271.411 215.456C271.461 216.026 270.891 216.075 270.94 216.645C270.618 219.544 269.725 222.492 268.783 224.87C267.568 230.717 263.974 235.622 263.899 241.37L263.948 241.94C263.948 241.94 263.948 241.94 263.428 242.559C262.858 242.608 262.907 243.178 262.337 243.228C261.247 243.896 260.677 243.946 259.587 244.615C257.927 245.333 256.267 246.051 254.037 246.818C250.147 248.304 246.826 249.74 242.936 251.226L244.023 263.763L228.687 265.667L244.023 263.763L243.506 251.176C247.396 249.691 250.716 248.255 254.607 246.769C256.267 246.051 258.497 245.283 260.157 244.565C261.247 243.896 261.817 243.847 262.907 243.178C263.477 243.129 263.997 242.51 263.997 242.51C263.997 242.51 264.567 242.46 264.518 241.89C264.468 241.32 264.468 241.32 264.468 241.32C265.114 235.523 268.088 230.098 269.923 224.772C270.815 221.823 271.757 219.445 272.08 216.546C272.031 215.977 272.551 215.357 273.072 214.738L283.352 220.736L285.085 227.475L294.845 234.093L315.63 242.05L328.737 240.914L336.267 248.299L345.632 250.357L356.383 255.166L362.276 270.157L356.383 255.166L345.632 250.357L336.267 248.299L327.548 240.443L314.441 241.579L294.226 233.572L284.466 226.955L282.733 220.216L272.452 214.218C272.973 213.598 273.543 213.549 274.112 213.5C275.773 212.781 277.433 212.063 279.043 210.775C280.704 210.057 282.364 209.339 283.974 208.051C285.585 206.763 287.245 206.045 288.286 204.806L296.389 198.936L296.959 198.887L301.32 196.212C301.89 196.163 301.84 195.593 302.41 195.544C305.78 194.677 311.33 192.473 312.42 191.805C313.511 191.136 316.979 191.409 316.979 191.409L327.856 191.04C328.996 190.941 330.185 191.412 331.894 191.264L338.733 190.671C341.582 190.424 345.05 190.697 345.62 190.648C347.33 190.499 350.327 191.962 351.467 191.863C352.037 191.814 357.933 193.599 360.311 194.541L379.957 202.597C378.866 203.266 378.346 203.885 377.875 205.074C377.404 206.263 378.073 207.354 377.552 207.973L378.442 218.23L385.873 224.475L391.967 228.54L388.472 234.585L396.523 241.35L389.042 234.535L394.866 228.863L403.661 230.971L408.714 236.274C410.374 235.556 412.604 234.788 414.264 234.07L419.814 231.866L428.734 228.796L438.866 233.085L443.646 241.856L454.174 250.703L450.033 262.545L464.475 276.795L450.033 262.545L454.174 250.703L444.786 241.757L440.006 232.986L429.254 228.177L420.334 231.247L414.784 233.451C413.124 234.169 411.464 234.887 409.804 235.605L404.8 230.872L396.575 228.715L390.481 224.65L382.381 217.315L382.111 207.578C382.062 207.008 381.963 205.868 382.483 205.249C383.003 204.63 383.524 204.01 384.044 203.391C385.135 202.722 386.795 202.004 388.455 201.286C392.394 200.37 395.715 198.934 399.605 197.448C401.785 196.111 404.585 195.294 406.716 193.387C408.847 191.479 410.409 189.622 410.781 187.293C411.104 184.394 413.185 181.917 416.407 179.341C419.628 176.765 423.469 174.71 427.929 173.175L429.589 172.456L429.54 171.887L442.422 174.788L442.992 174.739L443.562 174.689C446.981 174.393 449.83 174.146 453.2 173.279C456.57 172.413 459.419 172.166 463.309 170.68C464.92 169.392 468.339 169.096 471.188 168.848C474.037 168.601 477.457 168.305 480.306 168.058L480.876 168.008L481.446 167.959C483.675 167.191 487.615 166.276 489.325 166.127C491.604 165.93 496.733 165.485 496.733 165.485L497.352 166.005L497.922 165.956C501.44 166.799 504.958 167.642 507.955 169.105C509.714 169.526 510.903 169.997 512.712 170.989C513.331 171.509 513.901 171.46 514.52 171.98L515.139 172.5L515.759 173.021L514.767 174.829C514.767 174.829 518.855 175.623 521.184 175.995C523.513 176.367 526.56 178.4 529.458 178.722C532.357 179.045 537.015 179.789 538.204 180.26C538.774 180.211 541.722 181.104 542.911 181.575L542.39 182.194C541.87 182.813 540.78 183.482 539.64 183.581C537.41 184.348 534.66 185.735 532.43 186.503C529.58 186.75 526.731 186.997 523.882 187.244C522.172 187.392 521.082 188.061 519.942 188.16C518.852 188.828 517.143 188.977 516.102 190.215C514.54 192.073 512.93 193.361 511.938 195.169L507.007 197.894L509.162 202.874L510.621 213.082L509.112 202.304L506.958 197.324L511.889 194.6C513.45 192.742 514.442 190.933 516.622 189.596C517.143 188.977 518.803 188.259 519.942 188.16C521.082 188.061 522.742 187.343 523.882 187.244C526.731 186.997 529.58 186.75 532.479 187.072C535.849 186.206 538.079 185.438 540.259 184.101C541.35 183.432 541.87 182.813 543.01 182.714C543.58 182.665 544.1 182.046 544.1 182.046C544.1 182.046 544.67 181.996 544.62 181.426L551.831 178.504L552.401 178.455L561.172 173.675L570.613 169.986L584.685 173.358L578.91 179.601L567.711 182.868L565.827 187.625L567.711 182.868L578.96 180.17L585.254 173.309L586.987 180.048C587.606 180.569 588.275 181.659 589.464 182.13C590.084 182.65 591.322 183.691 593.081 184.113C593.651 184.064 593.651 184.063 594.221 184.014L594.791 183.965C595.36 183.915 595.98 184.436 595.98 184.436C596.599 184.956 597.788 185.427 598.407 185.948C597.936 187.137 598.085 188.846 598.184 189.986C598.233 190.556 598.332 191.695 600.091 192.117C600.091 192.117 600.71 192.637 600.239 193.827C599.916 196.725 598.454 199.723 596.991 202.72L601.425 207.503L613.59 208.745C616.538 209.637 620.056 210.48 623.004 211.373C623.623 211.893 624.763 211.794 624.812 212.364C624.862 212.934 624.911 213.504 624.391 214.123C623.92 215.312 622.879 216.551 622.408 217.74L621.713 222.968L629.467 226.314L622.283 222.918L622.978 217.691C624.019 216.452 624.49 215.263 624.961 214.074C624.911 213.504 625.432 212.885 625.382 212.315C624.763 211.794 624.193 211.844 623.004 211.373C620.056 210.48 616.538 209.637 613.59 208.745L601.995 207.454L598.181 203.191C599.643 200.194 601.155 197.766 601.428 194.298L601.379 193.728L615.081 186.224L623.876 188.332L628.112 190.835L635.843 187.294L649.717 188.387L662.748 192.998L672.857 190.399L674.52 176.476L681.335 168.995L687.432 159.854L687.113 149.547L692.887 143.305L703.888 137.758L710.852 131.987L718.359 132.484L710.852 131.987L703.839 137.188L692.837 142.735L687.063 148.977L687.383 159.284L681.237 167.855L674.422 175.336L672.758 189.259L662.649 191.859L649.618 187.247L635.744 186.154L628.014 189.695L623.777 187.192L614.363 184.564L600.611 191.498C600.611 191.498 600.611 191.498 600.562 190.928L599.943 190.407C599.373 190.457 599.274 189.317 599.224 188.747C599.126 187.608 598.977 185.898 599.448 184.709L608.865 174.132C608.865 174.132 613.401 166.849 617.416 160.185C619.448 157.138 621.01 155.28 622.001 153.472C624.752 152.085 627.403 149.559 627.403 149.559C627.403 149.559 632.41 141.086 635.16 139.7C637.341 138.362 637.416 132.614 637.416 132.614L650.799 114.804L690.34 120.56L720.12 119.7L721.408 121.311L729.904 133.205C729.904 133.205 734.387 138.557 735.675 140.168C736.913 141.209 740.455 148.94 740.455 148.94L740.28 153.548L737.033 162.442L731.258 168.684L735.172 174.086L740.373 181.099L733.538 168.486L738.222 162.913L742.51 152.78L742.438 145.323L733.125 130.629L739.344 129.515C739.344 129.515 744.572 130.21 747.619 132.243C749.427 133.234 755.893 134.97 760.65 136.854L766.174 140.968L762.827 148.722L762.379 156.799L757.027 161.282L748.578 163.163L738.271 163.483L748.726 164.872L756.655 163.611L763.717 158.979L765.205 149.664L768.354 139.63L773.829 143.175C776.256 144.686 779.254 146.149 781.731 148.231C782.97 149.271 784.208 150.312 784.827 150.833C784.827 150.833 784.926 151.972 784.976 152.542C785.025 153.112 785.124 154.252 785.173 154.822C784.851 157.72 784.577 161.189 784.255 164.088L784.354 165.227L784.973 165.748L796.864 170.458L798.472 182.375L798.521 182.945L799.091 182.896L819.58 187.434L820.149 187.385L820.67 186.766L833.532 169.574L851.395 170.321L856.646 177.904L871.61 178.328L891.233 179.497L916.754 169.246L891.233 179.497ZM546.903 168.023L542.469 163.24L553.471 157.693L553.494 164.581L546.903 168.023ZM552.456 152.614L535.954 160.935C535.954 160.935 521.658 161.601 517.669 161.947L519.8 160.039L524.83 158.455L526.664 153.128L534.718 146.689L552.456 152.614ZM498.617 160.728L492.994 155.475L501.667 149.555L507.737 146.732L508.307 146.683L513.907 145.049L515.666 145.47L525.475 152.657L523.591 157.414L519.131 158.949L515.389 162.144C511.97 162.441 503.274 161.473 498.617 160.728ZM520.646 143.316L532.959 146.267L525.996 152.038L516.186 144.851L520.646 143.316ZM481.079 143.877L488.537 143.804L495.474 144.351L500.477 149.084L491.805 155.004L478.082 142.414L481.079 143.877ZM475.93 124.229C475.93 124.229 475.98 124.798 475.93 124.229V124.229ZM390.397 157.483C390.819 155.724 394.04 153.148 394.511 151.959C395.032 151.34 396.073 150.101 396.593 149.482L398.253 148.764L406.9 149.162C406.9 149.162 409.848 150.055 411.607 150.476C412.796 150.947 414.505 150.799 415.075 150.75C414.555 151.369 414.555 151.369 414.035 151.988C412.994 153.227 412.002 155.035 411.011 156.844L395.253 160.507C393.592 161.225 392.453 161.324 390.793 162.042L385.615 161.917C386.804 162.388 389.976 159.242 390.397 157.483ZM263.611 198.334C263.611 198.334 259.573 198.111 258.904 197.02C258.285 196.5 256.476 195.508 254.717 195.087C256.799 192.61 258.881 190.133 260.962 187.656C263.565 184.559 266.216 182.033 268.818 178.936C272.386 180.349 275.383 181.812 278.951 183.225C280.759 184.216 283.088 184.588 285.417 184.96L283.285 186.868L282.146 186.967L282.765 187.487L286.356 195.788L263.611 198.334ZM287.966 194.5L285.143 188.429L290.743 186.795C291.313 186.746 291.883 186.696 293.022 186.597C294.732 186.449 295.872 186.35 297.581 186.202C297.581 186.202 297.581 186.202 298.151 186.153L300.305 191.133L296.761 196.608L297.38 197.128L287.966 194.5ZM305.533 191.828C303.873 192.546 302.213 193.264 300.552 193.982L297.232 195.418L300.206 189.993L298.671 185.533C306.03 184.321 313.959 183.059 320.797 182.466L319.706 183.135L315.023 188.708C312.223 189.525 308.853 190.392 305.533 191.828ZM332.886 189.456C330.037 189.703 327.138 189.38 324.858 189.578C322.53 189.205 319.631 188.883 317.351 189.08L320.896 183.606L321.986 182.937C324.265 182.739 326.545 182.542 328.874 182.914C331.153 182.716 333.482 183.088 335.811 183.46C336.38 183.411 336.43 183.981 337 183.932L337.57 183.882L338.189 184.403L341.756 185.816C343.565 186.807 345.943 187.749 347.751 188.74L332.886 189.456ZM345.87 180.291L342.873 178.829L342.253 178.309L341.064 177.838C340.445 177.317 339.875 177.367 338.735 177.465C340.396 176.747 342.056 176.029 343.666 174.741C344.236 174.692 344.187 174.122 344.757 174.073C345.327 174.023 345.277 173.453 345.847 173.404C346.367 172.785 346.937 172.735 347.458 172.116C348.548 171.447 350.208 170.729 351.868 170.011L354.938 178.931L356.622 185.1L345.87 180.291ZM359.273 182.574C359.273 182.574 355.508 178.881 355.979 177.692C356.45 176.503 352.488 170.531 352.488 170.531L360.442 162.952L360.393 162.382C363.291 162.705 366.19 163.027 369.089 163.35C371.988 163.673 374.936 164.565 377.884 165.458C378.454 165.409 379.643 165.88 380.213 165.83L389.65 175.346C390.368 177.006 391.037 178.097 392.325 179.707C392.944 180.228 393.613 181.318 394.802 181.789L395.372 181.74L387.641 185.281L379.366 182.554L371.537 184.955C370.967 185.004 370.967 185.004 370.397 185.054L369.877 185.673L368.836 186.912L367.275 188.77L362.419 185.746L359.273 182.574ZM395.79 193.186C392.47 194.622 388.01 196.157 384.021 196.503L369.182 190.901L368.513 189.81L367.894 189.29L369.455 187.432L370.496 186.194L371.016 185.574C371.016 185.574 371.586 185.525 372.156 185.475L379.416 183.123L388.26 185.801L397.131 182.161L397.081 181.591C397.651 181.542 397.081 181.591 397.081 181.591L397.701 182.112C398.939 183.153 399.657 184.813 400.326 185.903C400.995 186.993 401.093 188.133 401.762 189.223C400.201 191.081 398.02 192.418 395.79 193.186ZM422.454 169.63C418.044 171.735 414.203 173.791 410.982 176.367C408.801 177.704 407.24 179.562 405.678 181.42C404.638 182.658 403.597 183.897 403.175 185.656C402.506 184.566 401.219 182.955 399.98 181.914C399.361 181.394 399.361 181.394 398.172 180.923L397.602 180.972L397.032 181.021C397.032 181.021 397.032 181.021 396.462 181.071C395.892 181.12 395.273 180.6 394.604 179.51C393.366 178.469 392.647 176.809 391.409 175.768L380.881 166.92C383.161 166.723 386.01 166.476 388.24 165.708C391.04 164.891 394.409 164.025 397.209 163.208L413.587 160.065L414.157 160.016L414.677 159.396C415.668 157.588 416.709 156.349 417.701 154.541C418.742 153.302 420.303 151.445 421.963 150.726C424.193 149.959 426.423 149.191 429.223 148.374L422.454 169.63ZM480.256 167.488C477.358 167.165 473.939 167.462 471.089 167.709C467.67 168.005 464.251 168.302 460.931 169.738C459.271 170.456 455.852 170.753 453.002 171C450.153 171.247 447.304 171.494 444.975 171.122L431.374 166.56L437.102 146.543C446.022 143.473 454.942 140.402 463.812 136.762L494.206 162.833L480.256 167.488ZM489.796 164.938L493.636 162.883L489.796 164.938ZM529.633 174.114C527.874 173.692 526.115 173.271 524.356 172.849C522.597 172.428 520.838 172.006 520.219 171.486C522.597 172.428 524.356 172.849 524.356 172.849L541.998 164.43L546.432 169.212L543.036 176.396L541.896 176.495C541.896 176.495 542.466 176.446 543.036 176.396C542.466 176.446 540.707 176.024 540.137 176.074C536.049 175.28 533.101 174.387 529.633 174.114ZM560.405 171.445L551.633 176.225L544.126 175.728L547.572 169.113L555.253 165.002L555.18 157.545L561.498 157.571L571.159 163.049L569.895 168.326L560.405 171.445ZM586.865 172.021L572.174 168.128L573.91 161.662L566.627 157.126L573.514 157.103C573.514 157.103 588.479 157.528 601.684 157.531L588.054 172.492L588.673 173.012L588.104 173.062L586.865 172.021ZM615.855 162.043C613.724 163.95 613.45 167.419 613.45 167.419L606.833 177.179L599.597 186.419C598.977 185.898 598.358 185.378 598.358 185.378C597.739 184.857 597.169 184.907 596.55 184.386C595.98 184.436 595.93 183.866 595.36 183.915C594.791 183.965 594.221 184.014 594.221 184.014C593.651 184.063 592.412 183.023 591.793 182.502C591.174 181.982 590.555 181.461 589.886 180.371L588.104 173.062L588.054 172.492L588.673 173.012L603.394 157.382C610.281 157.359 616.029 157.435 618.879 157.188C618.408 158.377 617.466 160.755 615.855 162.043Z" fill="url(#paint0_linear_1348_2931)"/>
</g>
<defs>
<filter id="filter0_d_1348_2931" x="4.23065" y="11.1003" width="926.523" height="279.694" filterUnits="userSpaceOnUse" color-interpolation-filters="sRGB">
<feFlood flood-opacity="0" result="BackgroundImageFix"/>
<feColorMatrix in="SourceAlpha" type="matrix" values="0 0 0 0 0 0 0 0 0 0 0 0 0 0 0 0 0 0 127 0" result="hardAlpha"/>
<feOffset dx="4" dy="4"/>
<feGaussianBlur stdDeviation="5"/>
<feComposite in2="hardAlpha" operator="out"/>
<feColorMatrix type="matrix" values="0 0 0 0 0.580392 0 0 0 0 1 0 0 0 0 0.364706 0 0 0 1 0"/>
<feBlend mode="normal" in2="BackgroundImageFix" result="effect1_dropShadow_1348_2931"/>
<feBlend mode="normal" in="SourceGraphic" in2="effect1_dropShadow_1348_2931" result="shape"/>
</filter>
<linearGradient id="paint0_linear_1348_2931" x1="-85.3306" y1="151.351" x2="1132.59" y2="219.426" gradientUnits="userSpaceOnUse">
<stop stop-color="#0F9A25"/>
<stop offset="0.173566" stop-color="#00FF00"/>
<stop offset="0.722426" stop-color="#FFE974"/>
</linearGradient>
</defs>
</svg>
