<svg width="24" height="24" viewBox="0 0 24 24" fill="none" xmlns="http://www.w3.org/2000/svg">
<path d="M8.25 12.6443L16.6797 20.0625C16.7773 20.1484 16.8954 20.2074 17.0226 20.2338C17.1498 20.2602 17.2817 20.2532 17.4054 20.2133C17.529 20.1734 17.6402 20.1021 17.728 20.0063C17.8158 19.9106 17.8772 19.7937 17.9063 19.667L21.4325 4.27959C21.463 4.14655 21.4566 4.00771 21.414 3.87804C21.3715 3.74837 21.2943 3.63277 21.1909 3.54371C21.0874 3.45466 20.9617 3.39551 20.8271 3.37265C20.6925 3.3498 20.5543 3.36409 20.4273 3.414L3.12505 10.2113C2.97426 10.2705 2.8467 10.377 2.76147 10.5148C2.67624 10.6526 2.63791 10.8142 2.65223 10.9756C2.66654 11.137 2.73273 11.2894 2.84088 11.41C2.94903 11.5307 3.09334 11.613 3.2522 11.6448L8.25 12.6443Z" stroke="white" stroke-width="1.5" stroke-linecap="round" stroke-linejoin="round"/>
<path d="M8.25 12.6442L21.0105 3.42822" stroke="white" stroke-width="1.5" stroke-linecap="round" stroke-linejoin="round"/>
<path d="M12.46 16.3491L9.53033 19.2788C9.42544 19.3837 9.2918 19.4551 9.14632 19.4841C9.00083 19.513 8.85003 19.4982 8.71299 19.4414C8.57594 19.3846 8.45881 19.2885 8.3764 19.1652C8.29399 19.0418 8.25 18.8968 8.25 18.7485V12.6443" stroke="white" stroke-width="1.5" stroke-linecap="round" stroke-linejoin="round"/>
</svg>
