<svg width="32" height="32" viewBox="0 0 32 32" fill="none" xmlns="http://www.w3.org/2000/svg">
<path d="M10 5H6C5.44772 5 5 5.44772 5 6V26C5 26.5523 5.44772 27 6 27H10C10.5523 27 11 26.5523 11 26V6C11 5.44772 10.5523 5 10 5Z" stroke="#66FF66" stroke-width="1.5" stroke-linecap="round" stroke-linejoin="round"/>
<path d="M5 10H11" stroke="#66FF66" stroke-width="1.5" stroke-linecap="round" stroke-linejoin="round"/>
<path d="M16 5H12C11.4477 5 11 5.44772 11 6V26C11 26.5523 11.4477 27 12 27H16C16.5523 27 17 26.5523 17 26V6C17 5.44772 16.5523 5 16 5Z" stroke="#66FF66" stroke-width="1.5" stroke-linecap="round" stroke-linejoin="round"/>
<path d="M11 22H17" stroke="#66FF66" stroke-width="1.5" stroke-linecap="round" stroke-linejoin="round"/>
<path d="M21.835 4.68246L17.9713 5.71774C17.4378 5.86068 17.1212 6.40902 17.2642 6.94249L22.4406 26.2611C22.5835 26.7946 23.1319 27.1111 23.6653 26.9682L27.5291 25.9329C28.0625 25.79 28.3791 25.2416 28.2362 24.7082L23.0598 5.38957C22.9168 4.8561 22.3685 4.53952 21.835 4.68246Z" stroke="#66FF66" stroke-width="1.5" stroke-linecap="round" stroke-linejoin="round"/>
<path d="M21.4052 22.3967L27.2007 20.8438" stroke="#66FF66" stroke-width="1.5" stroke-linecap="round" stroke-linejoin="round"/>
<path d="M18.2993 10.8029L24.0949 9.25" stroke="#66FF66" stroke-width="1.5" stroke-linecap="round" stroke-linejoin="round"/>
</svg>
