<svg width="20" height="24" viewBox="0 0 20 24" fill="none" xmlns="http://www.w3.org/2000/svg">
<path d="M19.0169 23.0181H0.984863V7.125H19.0169V23.0181Z" stroke="url(#paint0_linear_7132_368838)" stroke-linecap="round" stroke-linejoin="round"/>
<mask id="mask0_7132_368838" style="mask-type:alpha" maskUnits="userSpaceOnUse" x="2" y="-513" width="16" height="535">
<path d="M11.9185 3.33441H6.35863L10.9713 -2.21445C11.2688 -2.60324 11.4468 -3.08948 11.4468 -3.61777C11.4468 -4.89334 10.4137 -5.92657 9.13808 -5.92657C7.86363 -5.92657 6.83043 -4.89334 6.83043 -3.61777L11.9185 3.33441ZM16.1506 -171.315H10.5907L15.2034 -176.864C15.5009 -177.253 15.6789 -177.739 15.6789 -178.268C15.6789 -179.543 14.6458 -180.576 13.3702 -180.576C12.0957 -180.576 11.0625 -179.543 11.0625 -178.268L16.1506 -171.315ZM8.74765 -311.05H3.18774L7.80041 -316.598C8.09794 -316.987 8.27596 -317.473 8.27596 -318.002C8.27596 -319.277 7.24282 -320.311 5.96719 -320.311C4.69274 -320.311 3.65954 -319.277 3.65954 -318.002L8.74765 -311.05ZM8.74765 -380.714H3.18774L7.80041 -386.262C8.09794 -386.651 8.27596 -387.137 8.27596 -387.666C8.27596 -388.941 7.24282 -389.975 5.96719 -389.975C4.69274 -389.975 3.65954 -388.941 3.65954 -387.666L8.74765 -380.714ZM8.74765 -345.658H3.18774L7.80041 -351.206C8.09794 -351.595 8.27596 -352.081 8.27596 -352.61C8.27596 -353.885 7.24282 -354.919 5.96719 -354.919C4.69274 -354.919 3.65954 -353.885 3.65954 -352.61L8.74765 -345.658ZM16.4608 -345.658H10.9008L15.5135 -351.206C15.811 -351.595 15.9891 -352.081 15.9891 -352.61C15.9891 -353.885 14.9559 -354.919 13.6803 -354.919C12.4058 -354.919 11.3726 -353.885 11.3726 -352.61L16.4608 -345.658ZM8.74765 -415.322H3.18774L7.80041 -420.87C8.09794 -421.259 8.27596 -421.745 8.27596 -422.274C8.27596 -423.549 7.24282 -424.582 5.96719 -424.582C4.69274 -424.582 3.65954 -423.549 3.65954 -422.274L8.74765 -415.322ZM8.74765 -450.49H3.18774L7.80041 -456.038C8.09794 -456.427 8.27596 -456.913 8.27596 -457.442C8.27596 -458.717 7.24282 -459.75 5.96719 -459.75C4.69274 -459.75 3.65954 -458.717 3.65954 -457.442L8.74765 -450.49ZM8.74765 -328.41H3.18774L7.80041 -333.958C8.09794 -334.347 8.27596 -334.833 8.27596 -335.362C8.27596 -336.637 7.24282 -337.671 5.96719 -337.671C4.69274 -337.671 3.65954 -336.637 3.65954 -335.362L8.74765 -328.41ZM8.74765 -398.073H3.18774L7.80041 -403.622C8.09794 -404.011 8.27596 -404.497 8.27596 -405.026C8.27596 -406.301 7.24282 -407.334 5.96719 -407.334C4.69274 -407.334 3.65954 -406.301 3.65954 -405.026L8.74765 -398.073ZM8.74765 -363.018H3.18774L7.80041 -368.566C8.09794 -368.955 8.27596 -369.441 8.27596 -369.97C8.27596 -371.245 7.24282 -372.279 5.96719 -372.279C4.69274 -372.279 3.65954 -371.245 3.65954 -369.97L8.74765 -363.018ZM8.74765 -432.682H3.18774L7.80041 -438.23C8.09794 -438.619 8.27596 -439.105 8.27596 -439.634C8.27596 -440.909 7.24282 -441.942 5.96719 -441.942C4.69274 -441.942 3.65954 -440.909 3.65954 -439.634L8.74765 -432.682ZM8.74765 -467.85H3.18774L7.80041 -473.398C8.09794 -473.787 8.27596 -474.273 8.27596 -474.802C8.27596 -476.077 7.24282 -477.11 5.96719 -477.11C4.69274 -477.11 3.65954 -476.077 3.65954 -474.802L8.74765 -467.85ZM4.08643 -142.789L7.0023 -145.705V-136.465L4.08643 -142.789ZM4.08643 -160.356L7.0023 -163.272V-154.032L4.08643 -160.356ZM4.08643 -177.66L7.0023 -180.576V-171.336L4.08643 -177.66ZM4.08643 -195.3L7.0023 -198.216V-188.976L4.08643 -195.3ZM4.08643 -264.74L7.0023 -267.656V-258.416L4.08643 -264.74ZM4.08643 -229.908L7.0023 -232.824V-223.584L4.08643 -229.908ZM4.08643 -299.348L7.0023 -302.264V-293.024L4.08643 -299.348ZM12.2229 -334.628L15.1388 -337.544V-328.304L12.2229 -334.628ZM11.4784 -508.912L14.3943 -511.828V-502.588L11.4784 -508.912ZM4.08643 -212.548L7.0023 -215.464V-206.224L4.08643 -212.548ZM4.08643 -281.988L7.0023 -284.904V-275.664L4.08643 -281.988ZM4.08643 -247.156L7.0023 -250.072V-240.832L4.08643 -247.156ZM11.9128 -160.356L14.8286 -163.272V-154.032" fill="#40B649"/>
<path d="M7.68068 14.4755L10.5965 11.5595V20.7995M11.9128 -160.356L14.8286 -163.272V-154.032M11.9185 3.33443H6.35863L10.9713 -2.21444C11.2688 -2.60325 11.4468 -3.08947 11.4468 -3.61777C11.4468 -4.89334 10.4137 -5.92658 9.13808 -5.92658C7.86363 -5.92658 6.83043 -4.89334 6.83043 -3.61777L11.9185 3.33443ZM16.1506 -171.315H10.5907L15.2034 -176.864C15.5009 -177.253 15.6789 -177.739 15.6789 -178.268C15.6789 -179.543 14.6458 -180.576 13.3702 -180.576C12.0957 -180.576 11.0625 -179.543 11.0625 -178.268L16.1506 -171.315ZM8.74765 -311.05H3.18774L7.80041 -316.598C8.09794 -316.987 8.27596 -317.473 8.27596 -318.002C8.27596 -319.277 7.24282 -320.311 5.96719 -320.311C4.69274 -320.311 3.65954 -319.277 3.65954 -318.002L8.74765 -311.05ZM8.74765 -380.714H3.18774L7.80041 -386.262C8.09794 -386.651 8.27596 -387.137 8.27596 -387.666C8.27596 -388.941 7.24282 -389.975 5.96719 -389.975C4.69274 -389.975 3.65954 -388.941 3.65954 -387.666L8.74765 -380.714ZM8.74765 -345.658H3.18774L7.80041 -351.206C8.09794 -351.595 8.27596 -352.081 8.27596 -352.61C8.27596 -353.885 7.24282 -354.918 5.96719 -354.918C4.69274 -354.918 3.65954 -353.885 3.65954 -352.61L8.74765 -345.658ZM16.4608 -345.658H10.9008L15.5135 -351.206C15.811 -351.595 15.9891 -352.081 15.9891 -352.61C15.9891 -353.885 14.9559 -354.918 13.6803 -354.918C12.4058 -354.918 11.3726 -353.885 11.3726 -352.61L16.4608 -345.658ZM8.74765 -415.322H3.18774L7.80041 -420.87C8.09794 -421.259 8.27596 -421.745 8.27596 -422.274C8.27596 -423.549 7.24282 -424.582 5.96719 -424.582C4.69274 -424.582 3.65954 -423.549 3.65954 -422.274L8.74765 -415.322ZM8.74765 -450.49H3.18774L7.80041 -456.038C8.09794 -456.427 8.27596 -456.913 8.27596 -457.442C8.27596 -458.717 7.24282 -459.75 5.96719 -459.75C4.69274 -459.75 3.65954 -458.717 3.65954 -457.442L8.74765 -450.49ZM8.74765 -328.41H3.18774L7.80041 -333.958C8.09794 -334.347 8.27596 -334.833 8.27596 -335.362C8.27596 -336.637 7.24282 -337.671 5.96719 -337.671C4.69274 -337.671 3.65954 -336.637 3.65954 -335.362L8.74765 -328.41ZM8.74765 -398.073H3.18774L7.80041 -403.622C8.09794 -404.011 8.27596 -404.497 8.27596 -405.026C8.27596 -406.301 7.24282 -407.334 5.96719 -407.334C4.69274 -407.334 3.65954 -406.301 3.65954 -405.026L8.74765 -398.073ZM8.74765 -363.018H3.18774L7.80041 -368.566C8.09794 -368.955 8.27596 -369.441 8.27596 -369.97C8.27596 -371.245 7.24282 -372.278 5.96719 -372.278C4.69274 -372.278 3.65954 -371.245 3.65954 -369.97L8.74765 -363.018ZM8.74765 -432.682H3.18774L7.80041 -438.23C8.09794 -438.619 8.27596 -439.105 8.27596 -439.634C8.27596 -440.909 7.24282 -441.942 5.96719 -441.942C4.69274 -441.942 3.65954 -440.909 3.65954 -439.634L8.74765 -432.682ZM8.74765 -467.85H3.18774L7.80041 -473.398C8.09794 -473.787 8.27596 -474.273 8.27596 -474.802C8.27596 -476.077 7.24282 -477.11 5.96719 -477.11C4.69274 -477.11 3.65954 -476.077 3.65954 -474.802L8.74765 -467.85ZM4.08643 -142.789L7.0023 -145.705V-136.465L4.08643 -142.789ZM4.08643 -160.356L7.0023 -163.272V-154.032L4.08643 -160.356ZM4.08643 -177.66L7.0023 -180.576V-171.336L4.08643 -177.66ZM4.08643 -195.3L7.0023 -198.216V-188.976L4.08643 -195.3ZM4.08643 -264.74L7.0023 -267.656V-258.416L4.08643 -264.74ZM4.08643 -229.908L7.0023 -232.824V-223.584L4.08643 -229.908ZM4.08643 -299.348L7.0023 -302.264V-293.024L4.08643 -299.348ZM12.2229 -334.628L15.1388 -337.544V-328.304L12.2229 -334.628ZM11.4784 -508.912L14.3943 -511.828V-502.588L11.4784 -508.912ZM4.08643 -212.548L7.0023 -215.464V-206.224L4.08643 -212.548ZM4.08643 -281.988L7.0023 -284.904V-275.664L4.08643 -281.988ZM4.08643 -247.156L7.0023 -250.072V-240.832L4.08643 -247.156Z" stroke="#40B649" stroke-width="0.967678" stroke-linecap="round" stroke-linejoin="round"/>
</mask>
<g mask="url(#mask0_7132_368838)">
<path d="M19.0169 23.0181H0.984863V7.125H19.0169V23.0181Z" fill="url(#paint1_linear_7132_368838)"/>
</g>
<path d="M19.0169 9.76532H0.984863M5.23515 7.12576H2.78801V4.96875H5.23515V7.12576V7.12576ZM17.2137 7.12576H14.7666V4.96875H17.2137V7.12576H17.2137Z" stroke="url(#paint2_linear_7132_368838)" stroke-linecap="round" stroke-linejoin="round"/>
<defs>
<linearGradient id="paint0_linear_7132_368838" x1="10.0009" y1="7.125" x2="10.0009" y2="23.0181" gradientUnits="userSpaceOnUse">
<stop stop-color="#66FF66"/>
<stop offset="1" stop-color="#2BDC57"/>
</linearGradient>
<linearGradient id="paint1_linear_7132_368838" x1="10.0009" y1="7.125" x2="10.0009" y2="23.0181" gradientUnits="userSpaceOnUse">
<stop stop-color="#66FF66"/>
<stop offset="1" stop-color="#2BDC57"/>
</linearGradient>
<linearGradient id="paint2_linear_7132_368838" x1="10.0009" y1="4.96875" x2="10.0009" y2="9.76532" gradientUnits="userSpaceOnUse">
<stop stop-color="#66FF66"/>
<stop offset="1" stop-color="#2BDC57"/>
</linearGradient>
</defs>
</svg>
