<svg width="38" height="50" viewBox="0 0 38 50" fill="none" xmlns="http://www.w3.org/2000/svg">
<g filter="url(#filter0_d_7113_472326)">
<path d="M23.44 5.10156C21.63 5.10156 20.01 5.98156 19 7.33156C17.99 5.98156 16.37 5.10156 14.56 5.10156C11.49 5.10156 9 7.60156 9 10.6916C9 11.8816 9.19 12.9816 9.52 14.0016C11.1 19.0016 15.97 21.9916 18.38 22.8116C18.72 22.9316 19.28 22.9316 19.62 22.8116C22.03 21.9916 26.9 19.0016 28.48 14.0016C28.81 12.9816 29 11.8816 29 10.6916C29 7.60156 26.51 5.10156 23.44 5.10156Z" fill="#FCFCFD"/>
</g>
<g filter="url(#filter1_d_7113_472326)">
<path d="M6.72556 33.092H8.86156V41H7.57756V34.328H6.72556V33.092ZM10.4459 40.316C10.4459 40.124 10.5139 39.964 10.6499 39.836C10.7939 39.7 10.9539 39.632 11.1299 39.632C11.2899 39.632 11.4379 39.7 11.5739 39.836C11.7179 39.964 11.7899 40.124 11.7899 40.316C11.7899 40.524 11.7179 40.692 11.5739 40.82C11.4379 40.94 11.2899 41 11.1299 41C10.9539 41 10.7939 40.94 10.6499 40.82C10.5139 40.692 10.4459 40.524 10.4459 40.316ZM15.8573 41.036C15.3773 41.036 14.9333 40.948 14.5253 40.772C14.1253 40.588 13.7773 40.324 13.4813 39.98C13.1853 39.636 12.9533 39.216 12.7853 38.72C12.6173 38.216 12.5333 37.648 12.5333 37.016C12.5333 36.328 12.6133 35.732 12.7733 35.228C12.9333 34.724 13.1573 34.308 13.4453 33.98C13.7413 33.644 14.0933 33.4 14.5013 33.248C14.9093 33.088 15.3613 33.008 15.8573 33.008C16.3453 33.008 16.7893 33.096 17.1893 33.272C17.5973 33.448 17.9493 33.708 18.2453 34.052C18.5413 34.396 18.7693 34.82 18.9293 35.324C19.0973 35.82 19.1813 36.384 19.1813 37.016C19.1813 37.664 19.0973 38.24 18.9293 38.744C18.7693 39.24 18.5373 39.66 18.2333 40.004C17.9373 40.34 17.5893 40.596 17.1893 40.772C16.7893 40.948 16.3453 41.036 15.8573 41.036ZM15.8453 39.8C16.3013 39.8 16.6773 39.684 16.9733 39.452C17.2693 39.212 17.4893 38.88 17.6333 38.456C17.7773 38.024 17.8493 37.532 17.8493 36.98C17.8493 36.444 17.7773 35.972 17.6333 35.564C17.4893 35.148 17.2693 34.824 16.9733 34.592C16.6773 34.352 16.3013 34.236 15.8453 34.244C15.4053 34.236 15.0373 34.352 14.7413 34.592C14.4453 34.824 14.2253 35.148 14.0813 35.564C13.9373 35.98 13.8653 36.464 13.8653 37.016C13.8653 37.552 13.9373 38.032 14.0813 38.456C14.2253 38.88 14.4453 39.212 14.7413 39.452C15.0373 39.684 15.4053 39.8 15.8453 39.8ZM19.9016 38.492C19.9016 38.084 19.9776 37.732 20.1296 37.436C20.2896 37.14 20.4856 36.892 20.7176 36.692C20.9496 36.492 21.1816 36.34 21.4136 36.236C21.1896 36.076 21.0016 35.888 20.8496 35.672C20.7056 35.448 20.6336 35.164 20.6336 34.82C20.6336 34.46 20.7256 34.144 20.9096 33.872C21.0936 33.6 21.3456 33.388 21.6656 33.236C21.9856 33.076 22.3456 32.996 22.7456 32.996C23.1456 32.996 23.5056 33.076 23.8256 33.236C24.1456 33.388 24.3976 33.596 24.5816 33.86C24.7736 34.124 24.8696 34.424 24.8696 34.76C24.8696 35.136 24.7936 35.436 24.6416 35.66C24.4896 35.876 24.2976 36.068 24.0656 36.236C24.3056 36.348 24.5416 36.504 24.7736 36.704C25.0136 36.904 25.2096 37.152 25.3616 37.448C25.5136 37.744 25.5896 38.092 25.5896 38.492C25.5896 38.948 25.4616 39.376 25.2056 39.776C24.9576 40.168 24.6176 40.488 24.1856 40.736C23.7616 40.976 23.2776 41.096 22.7336 41.096C22.1896 41.096 21.7056 40.976 21.2816 40.736C20.8576 40.488 20.5216 40.168 20.2736 39.776C20.0256 39.376 19.9016 38.948 19.9016 38.492ZM21.2096 38.444C21.2096 38.724 21.2776 38.984 21.4136 39.224C21.5576 39.464 21.7416 39.656 21.9656 39.8C22.1976 39.944 22.4536 40.016 22.7336 40.016C23.0216 40.016 23.2856 39.944 23.5256 39.8C23.7656 39.656 23.9576 39.464 24.1016 39.224C24.2456 38.984 24.3176 38.724 24.3176 38.444C24.3176 38.156 24.2496 37.896 24.1136 37.664C23.9776 37.432 23.7936 37.244 23.5616 37.1C23.3296 36.956 23.0736 36.88 22.7936 36.872C22.5136 36.864 22.2536 36.932 22.0136 37.076C21.7736 37.212 21.5776 37.4 21.4256 37.64C21.2816 37.88 21.2096 38.148 21.2096 38.444ZM21.8696 34.976C21.8696 35.2 21.9616 35.396 22.1456 35.564C22.3296 35.724 22.5376 35.804 22.7696 35.804C23.0016 35.804 23.2056 35.724 23.3816 35.564C23.5576 35.396 23.6456 35.2 23.6456 34.976C23.6456 34.712 23.5576 34.496 23.3816 34.328C23.2136 34.152 23.0096 34.064 22.7696 34.064C22.5376 34.064 22.3296 34.152 22.1456 34.328C21.9616 34.496 21.8696 34.712 21.8696 34.976ZM26.8543 41V31.676H28.0903V41H26.8543ZM29.3143 37.64L31.6183 41H30.1783L28.4983 38.348L29.3143 37.64ZM27.7063 39.452L27.5863 38.264L30.6343 35.864L31.3903 36.524L27.7063 39.452Z" fill="#FCFCFD"/>
</g>
<defs>
<filter id="filter0_d_7113_472326" x="3" y="-2" width="32" height="32" filterUnits="userSpaceOnUse" color-interpolation-filters="sRGB">
<feFlood flood-opacity="0" result="BackgroundImageFix"/>
<feColorMatrix in="SourceAlpha" type="matrix" values="0 0 0 0 0 0 0 0 0 0 0 0 0 0 0 0 0 0 127 0" result="hardAlpha"/>
<feOffset/>
<feGaussianBlur stdDeviation="2"/>
<feComposite in2="hardAlpha" operator="out"/>
<feColorMatrix type="matrix" values="0 0 0 0 0 0 0 0 0 0 0 0 0 0 0 0 0 0 0.36 0"/>
<feBlend mode="normal" in2="BackgroundImageFix" result="effect1_dropShadow_7113_472326"/>
<feBlend mode="normal" in="SourceGraphic" in2="effect1_dropShadow_7113_472326" result="shape"/>
</filter>
<filter id="filter1_d_7113_472326" x="2.72559" y="27.6797" width="32.8926" height="17.4141" filterUnits="userSpaceOnUse" color-interpolation-filters="sRGB">
<feFlood flood-opacity="0" result="BackgroundImageFix"/>
<feColorMatrix in="SourceAlpha" type="matrix" values="0 0 0 0 0 0 0 0 0 0 0 0 0 0 0 0 0 0 127 0" result="hardAlpha"/>
<feOffset/>
<feGaussianBlur stdDeviation="2"/>
<feComposite in2="hardAlpha" operator="out"/>
<feColorMatrix type="matrix" values="0 0 0 0 0 0 0 0 0 0 0 0 0 0 0 0 0 0 0.36 0"/>
<feBlend mode="normal" in2="BackgroundImageFix" result="effect1_dropShadow_7113_472326"/>
<feBlend mode="normal" in="SourceGraphic" in2="effect1_dropShadow_7113_472326" result="shape"/>
</filter>
</defs>
</svg>
