<svg width="32" height="32" viewBox="0 0 32 32" fill="none" xmlns="http://www.w3.org/2000/svg">
<path d="M18.4964 24.7344C18.4964 26.0942 17.3922 27.1984 16.0324 27.1984C14.6725 27.1984 13.5684 26.0942 13.5684 24.7344" stroke="#777E91" stroke-width="1.5" stroke-linecap="round" stroke-linejoin="round"/>
<path d="M17.0856 7.44099V5.76303C17.0856 5.36777 16.6411 5.04688 16.0937 5.04688C15.5463 5.04688 15.1018 5.36566 15.1018 5.7583V7.44099M22.249 12.9925C22.249 9.9286 19.4931 7.44099 16.0988 7.44099C12.7045 7.44099 9.96069 9.9718 9.97567 13.0889L10.0029 18.7849C10.003 18.8114 9.28185 20.0039 8.39359 21.446C7.50527 22.8881 6.78719 24.059 6.79103 24.059L13.1979 24.0583L18.8512 24.0578C22.3834 24.0574 25.2497 24.0549 25.2477 24.0522C25.2458 24.0494 24.5732 22.8296 23.7465 21.33C22.9199 19.8304 22.2488 18.5974 22.2488 18.5784L22.249 12.9925V12.9925Z" stroke="#777E91" stroke-width="1.5" stroke-linecap="round" stroke-linejoin="round"/>
</svg>
