<svg width="32" height="32" viewBox="0 0 32 32" fill="none" xmlns="http://www.w3.org/2000/svg">
<path d="M28 22.1662V9.83594C28 9.6585 27.9528 9.48426 27.8632 9.33109C27.7736 9.17793 27.6449 9.05135 27.4903 8.96436L16.4903 2.77686C16.3406 2.69267 16.1717 2.64844 16 2.64844C15.8283 2.64844 15.6594 2.69267 15.5097 2.77686L4.50974 8.96436C4.35509 9.05135 4.22637 9.17793 4.13679 9.33109C4.04721 9.48426 4 9.6585 4 9.83594V22.1662C4 22.3437 4.04721 22.5179 4.13679 22.6711C4.22637 22.8243 4.35509 22.9508 4.50974 23.0378L15.5097 29.2253C15.6594 29.3095 15.8283 29.3537 16 29.3537C16.1717 29.3537 16.3406 29.3095 16.4903 29.2253L27.4903 23.0378C27.6449 22.9508 27.7736 22.8243 27.8632 22.6711C27.9528 22.5179 28 22.3437 28 22.1662Z" stroke="#66FF66" stroke-width="1.5" stroke-linecap="round" stroke-linejoin="round"/>
<path d="M27.8622 9.32925L16.1187 16.001L4.13855 9.32812" stroke="#66FF66" stroke-width="1.5" stroke-linecap="round" stroke-linejoin="round"/>
<path d="M16.1187 16L16.0013 29.3527" stroke="#66FF66" stroke-width="1.5" stroke-linecap="round" stroke-linejoin="round"/>
</svg>
