<svg width="32" height="32" viewBox="0 0 32 32" fill="none" xmlns="http://www.w3.org/2000/svg">
<path d="M11.7573 23.0706C10.3431 27.3133 4.68628 27.3133 4.68628 27.3133C4.68628 27.3133 4.68628 21.6564 8.92892 20.2422" stroke="#66FF66" stroke-width="1.5" stroke-linecap="round" stroke-linejoin="round"/>
<path d="M24.4853 13.1725L16 21.6578L10.3431 16.0009L18.8284 7.51564C22.0414 4.30262 25.2545 4.33396 26.6247 4.53841C26.8357 4.56986 27.031 4.66825 27.1818 4.81908C27.3327 4.96991 27.4311 5.16521 27.4625 5.37619C27.667 6.74646 27.6983 9.95947 24.4853 13.1725Z" stroke="#66FF66" stroke-width="1.5" stroke-linecap="round" stroke-linejoin="round"/>
<path d="M23.0711 14.5859V22.657C23.0711 22.7883 23.0452 22.9184 22.9949 23.0397C22.9447 23.161 22.871 23.2713 22.7782 23.3641L18.7355 27.4068C18.6075 27.5348 18.4471 27.6257 18.2716 27.6697C18.096 27.7137 17.9118 27.7093 17.7386 27.6568C17.5653 27.6044 17.4096 27.5059 17.2879 27.3719C17.1663 27.2378 17.0833 27.0733 17.0478 26.8958L16 21.657" stroke="#66FF66" stroke-width="1.5" stroke-linecap="round" stroke-linejoin="round"/>
<path d="M17.4142 8.92969H9.34314C9.21181 8.92969 9.08178 8.95555 8.96045 9.00581C8.83913 9.05606 8.72889 9.12972 8.63603 9.22258L4.59331 13.2653C4.46532 13.3933 4.37447 13.5536 4.33045 13.7292C4.28642 13.9047 4.29087 14.089 4.34332 14.2622C4.39577 14.4354 4.49426 14.5912 4.62828 14.7128C4.76229 14.8345 4.92681 14.9175 5.1043 14.953L10.3431 16.0008" stroke="#66FF66" stroke-width="1.5" stroke-linecap="round" stroke-linejoin="round"/>
</svg>
