<svg width="48" height="48" viewBox="0 0 48 48" fill="none" xmlns="http://www.w3.org/2000/svg">
<path d="M18 27C19.6569 27 21 25.6569 21 24C21 22.3431 19.6569 21 18 21C16.3431 21 15 22.3431 15 24C15 25.6569 16.3431 27 18 27Z" stroke="#B1B5C4" stroke-width="2" stroke-linecap="round" stroke-linejoin="round"/>
<path d="M28.5 33.75C30.1569 33.75 31.5 32.4069 31.5 30.75C31.5 29.0931 30.1569 27.75 28.5 27.75C26.8431 27.75 25.5 29.0931 25.5 30.75C25.5 32.4069 26.8431 33.75 28.5 33.75Z" stroke="#B1B5C4" stroke-width="2" stroke-linecap="round" stroke-linejoin="round"/>
<path d="M28.5 20.25C30.1569 20.25 31.5 18.9069 31.5 17.25C31.5 15.5931 30.1569 14.25 28.5 14.25C26.8431 14.25 25.5 15.5931 25.5 17.25C25.5 18.9069 26.8431 20.25 28.5 20.25Z" stroke="#B1B5C4" stroke-width="2" stroke-linecap="round" stroke-linejoin="round"/>
<path d="M25.9767 18.875L20.5232 22.3808" stroke="#B1B5C4" stroke-width="2" stroke-linecap="round" stroke-linejoin="round"/>
<path d="M20.5232 25.625L25.9767 29.1308" stroke="#B1B5C4" stroke-width="2" stroke-linecap="round" stroke-linejoin="round"/>
<rect x="1" y="1" width="46" height="46" rx="23" stroke="#23262F" stroke-width="2"/>
</svg>
