<svg width="40" height="40" viewBox="0 0 40 40" fill="none" xmlns="http://www.w3.org/2000/svg">
<path d="M9.60938 11.9671V28.1647C9.60938 29.23 10.4731 30.0937 11.5384 30.0937H30.3685V24.2657M9.60938 11.9671C9.60938 13.0275 10.469 13.8873 11.5295 13.8873H30.3685V19.3368M9.60938 11.9671C9.60938 10.9066 10.469 10.0469 11.5295 10.0469H27.528L27.5148 13.8873" stroke="#777E91" stroke-width="1.5" stroke-linejoin="round"/>
<path d="M24.9284 23.9513H31.5845V19.4766H24.9284C23.6927 19.4766 22.691 20.4783 22.691 21.7139C22.691 22.9496 23.6927 23.9513 24.9284 23.9513V23.9513Z" stroke="#777E91" stroke-width="1.5" stroke-linecap="round" stroke-linejoin="round"/>
<path d="M25.8323 21.7132C25.8323 22.2279 25.4151 22.6451 24.9004 22.6451C24.3857 22.6451 23.9685 22.2279 23.9685 21.7132C23.9685 21.1985 24.3857 20.7812 24.9004 20.7812C25.4151 20.7812 25.8323 21.1985 25.8323 21.7132V21.7132Z" fill="#777E91"/>
</svg>
