<svg width="24" height="24" viewBox="0 0 24 24" fill="none" xmlns="http://www.w3.org/2000/svg">
<path d="M23.1839 15.9196L19.9989 5.30273C19.9351 5.08872 19.8242 4.89171 19.6744 4.72616C19.5245 4.5606 19.3395 4.43071 19.1329 4.346L19.0825 4.36129L19.134 4.3433C18.0886 3.91707 17.0043 3.59345 15.8963 3.37701C15.7997 3.3578 15.7003 3.35781 15.6037 3.37703C15.5071 3.39626 15.4152 3.43432 15.3333 3.48905C15.2514 3.54378 15.1811 3.6141 15.1264 3.696C15.0717 3.7779 15.0336 3.86977 15.0144 3.96638C14.9952 4.06298 14.9952 4.16242 15.0144 4.25902C15.0337 4.35562 15.0717 4.44749 15.1265 4.52938C15.1812 4.61127 15.2515 4.68158 15.3334 4.73629C15.4153 4.79101 15.5072 4.82905 15.6038 4.84826C16.0242 4.93185 16.4362 5.03021 16.8398 5.14334C16.9979 5.22139 17.1233 5.35277 17.194 5.51429C17.2646 5.67581 17.2759 5.8571 17.2259 6.02615C17.1759 6.1952 17.0678 6.34115 16.9206 6.43824C16.7735 6.53534 16.5968 6.57733 16.4217 6.55682C13.5545 5.82025 10.5485 5.81433 7.67848 6.53961C7.50016 6.58346 7.31194 6.56031 7.14955 6.47457C6.98716 6.38883 6.8619 6.24646 6.79754 6.07447C6.73318 5.90248 6.73419 5.71285 6.8004 5.54156C6.8666 5.37028 6.99338 5.22925 7.15668 5.14526L7.15988 5.14636C7.56326 5.03338 7.97579 4.93488 8.39745 4.85087C8.59252 4.81205 8.76419 4.69734 8.8747 4.53197C8.9852 4.36659 9.02549 4.16409 8.98671 3.96901C8.94792 3.77393 8.83324 3.60224 8.66788 3.49171C8.50252 3.38118 8.30002 3.34086 8.10494 3.37962C6.99695 3.59608 5.91261 3.9197 4.86722 4.34591C4.6606 4.43063 4.47558 4.56053 4.32571 4.72608C4.17584 4.89163 4.06494 5.08864 4.00113 5.30264L0.816101 15.9196C0.733821 16.1973 0.733269 16.4929 0.814511 16.771C0.895752 17.0491 1.05535 17.2979 1.27423 17.4877C1.36372 17.5655 1.45546 17.6419 1.54848 17.7175C1.55067 17.7193 1.55255 17.7214 1.55475 17.7231C3.07635 18.9575 5.07069 19.9004 7.32211 20.45C7.51534 20.4972 7.7194 20.4657 7.8894 20.3624C8.05939 20.2592 8.1814 20.0926 8.22858 19.8993C8.27576 19.7061 8.24424 19.5021 8.14097 19.3321C8.03769 19.1621 7.87112 19.0401 7.67789 18.9929C6.66536 18.7495 5.68079 18.4018 4.73996 17.9554L4.74614 17.9559C4.61421 17.8363 4.52917 17.6736 4.50622 17.497C4.48328 17.3204 4.52394 17.1414 4.62092 16.9921C4.71791 16.8427 4.86488 16.7328 5.03553 16.6819C5.20619 16.631 5.38938 16.6425 5.55231 16.7144C7.33219 17.5072 9.56841 18 12 18C14.4316 18 16.6694 17.5066 18.4493 16.7138C18.6122 16.6424 18.7952 16.6312 18.9657 16.6823C19.1361 16.7334 19.2828 16.8435 19.3795 16.9928C19.4763 17.1421 19.5167 17.321 19.4937 17.4974C19.4707 17.6739 19.3857 17.8364 19.2539 17.9559L19.26 17.9554C18.3192 18.4018 17.3346 18.7495 16.3221 18.9929C16.1289 19.0401 15.9623 19.1621 15.859 19.3321C15.7558 19.5021 15.7242 19.7061 15.7714 19.8993C15.8186 20.0926 15.9406 20.2592 16.1106 20.3624C16.2806 20.4657 16.4847 20.4972 16.6779 20.45C18.9293 19.9004 20.9236 18.9575 22.4453 17.7231C22.4475 17.7213 22.4495 17.7192 22.4517 17.7173H22.4518C22.5447 17.6418 22.6364 17.5653 22.7259 17.4876C22.9447 17.2978 23.1043 17.049 23.1855 16.7709C23.2667 16.4929 23.2662 16.1973 23.1839 15.9196ZM9 14.625C8.7775 14.625 8.55999 14.559 8.37498 14.4354C8.18998 14.3118 8.04578 14.1361 7.96064 13.9305C7.87549 13.7249 7.85321 13.4987 7.89662 13.2805C7.94002 13.0623 8.04717 12.8618 8.2045 12.7045C8.36184 12.5472 8.56229 12.44 8.78052 12.3966C8.99875 12.3532 9.22495 12.3755 9.43052 12.4606C9.63609 12.5458 9.81179 12.69 9.9354 12.875C10.059 13.06 10.125 13.2775 10.125 13.5C10.125 13.7984 10.0065 14.0845 9.7955 14.2955C9.58452 14.5065 9.29837 14.625 9 14.625ZM15 14.625C14.7775 14.625 14.56 14.559 14.375 14.4354C14.19 14.3118 14.0458 14.1361 13.9606 13.9305C13.8755 13.7249 13.8532 13.4987 13.8966 13.2805C13.94 13.0623 14.0472 12.8618 14.2045 12.7045C14.3618 12.5472 14.5623 12.44 14.7805 12.3966C14.9988 12.3532 15.225 12.3755 15.4305 12.4606C15.6361 12.5458 15.8118 12.69 15.9354 12.875C16.059 13.06 16.125 13.2775 16.125 13.5C16.125 13.7984 16.0065 14.0845 15.7955 14.2955C15.5845 14.5065 15.2984 14.625 15 14.625Z" fill="white"/>
</svg>
