<svg width="24" height="24" viewBox="0 0 24 24" fill="none" xmlns="http://www.w3.org/2000/svg">
<path d="M12.75 12C12.75 15.5152 10.0584 18.375 6.75 18.375C3.44156 18.375 0.75 15.5152 0.75 12C0.75 8.48483 3.44156 5.625 6.75 5.625C10.0584 5.625 12.75 8.48483 12.75 12ZM17.25 6C16.7173 6 15.7126 6.25882 14.9697 7.99228C14.5056 9.07507 14.25 10.4984 14.25 12C14.25 13.5016 14.5056 14.9249 14.9697 16.0077C15.7126 17.7412 16.7173 18 17.25 18C17.7827 18 18.7874 17.7412 19.5303 16.0077C19.9944 14.9249 20.25 13.5016 20.25 12C20.25 10.4984 19.9944 9.07507 19.5303 7.99228C18.7874 6.25882 17.7827 6 17.25 6ZM22.5 6C22.3011 6.00001 22.1103 6.07903 21.9697 6.21968C21.829 6.36033 21.75 6.55109 21.75 6.75V17.25C21.75 17.4489 21.829 17.6397 21.9697 17.7803C22.1103 17.921 22.3011 18 22.5 18C22.6989 18 22.8897 17.921 23.0303 17.7803C23.171 17.6397 23.25 17.4489 23.25 17.25V6.75C23.25 6.55109 23.171 6.36033 23.0303 6.21968C22.8897 6.07903 22.6989 6.00001 22.5 6Z" fill="white"/>
</svg>
