<svg width="24" height="24" viewBox="0 0 24 24" fill="none" xmlns="http://www.w3.org/2000/svg">
<path d="M21.6802 2.97529C21.4736 2.79684 21.222 2.67833 20.9528 2.63259C20.6836 2.58686 20.4071 2.61564 20.153 2.71583L2.85081 9.51316C2.54923 9.63164 2.29412 9.84459 2.12365 10.1201C1.95319 10.3957 1.87653 10.719 1.90516 11.0418C1.93379 11.3646 2.06615 11.6694 2.28246 11.9106C2.49876 12.1519 2.78737 12.3166 3.1051 12.3801L7.49999 13.2591V18.7485C7.49974 19.0453 7.58756 19.3355 7.75234 19.5823C7.91712 19.8292 8.15144 20.0216 8.42564 20.1351C8.69983 20.2487 9.00156 20.2784 9.29261 20.2203C9.58367 20.1623 9.85096 20.0192 10.0606 19.8092L12.4928 17.377L16.1843 20.6256C16.4561 20.8669 16.8068 21.0004 17.1703 21.0008C17.3283 21.0007 17.4853 20.9758 17.6356 20.927C17.8835 20.8484 18.1065 20.7062 18.2822 20.5145C18.458 20.3228 18.5804 20.0883 18.6373 19.8345L22.1636 4.44709C22.225 4.18101 22.2124 3.90321 22.1272 3.64377C22.042 3.38433 21.8874 3.15316 21.6802 2.97529ZM17.1752 19.4995L9.45094 12.702L20.5739 4.66888L17.1752 19.4995Z" fill="white"/>
</svg>
