<svg width="24" height="24" viewBox="0 0 24 24" fill="none" xmlns="http://www.w3.org/2000/svg">
<path d="M23.0304 7.28029L20.2025 10.1082C19.6379 16.6596 14.1129 21.75 7.49999 21.75C6.13833 21.75 5.01616 21.5341 4.16458 21.1083C3.47734 20.7647 3.19582 20.3959 3.12597 20.291C3.0633 20.197 3.02267 20.09 3.00713 19.9781C2.99159 19.8662 3.00153 19.7523 3.03621 19.6447C3.07089 19.5372 3.12941 19.4389 3.2074 19.3572C3.2854 19.2754 3.38085 19.2124 3.48664 19.1727C3.51076 19.1636 5.7224 18.3142 7.15181 16.6969C6.26271 16.0638 5.4802 15.293 4.8337 14.4136C3.54857 12.6695 2.18939 9.6407 3.01207 5.1158C3.03656 4.98114 3.09743 4.85575 3.18809 4.7532C3.27874 4.65066 3.39573 4.57488 3.52638 4.53407C3.65703 4.49327 3.79635 4.48899 3.92925 4.5217C4.06216 4.55441 4.18357 4.62287 4.28035 4.71965C4.3134 4.75261 7.4343 7.82943 11.2495 8.82328L11.25 8.24961C11.2581 7.0488 11.7426 5.90032 12.5971 5.05663C13.4517 4.21294 14.6062 3.74307 15.807 3.7503C16.5871 3.7611 17.3511 3.97405 18.0243 4.36835C18.6974 4.76265 19.2569 5.32481 19.6478 5.99993L22.5 5.99998C22.6483 5.99997 22.7933 6.04396 22.9167 6.12637C23.04 6.20878 23.1361 6.32591 23.1929 6.46295C23.2497 6.59999 23.2645 6.75079 23.2356 6.89628C23.2067 7.04176 23.1352 7.1754 23.0304 7.28029Z" fill="white"/>
</svg>
