<svg width="24" height="24" viewBox="0 0 24 24" fill="none" xmlns="http://www.w3.org/2000/svg">
<path d="M21.9685 6.54348C21.8796 6.19853 21.7099 5.87967 21.4734 5.61321C21.237 5.34676 20.9406 5.14035 20.6087 5.01102C17.3959 3.77644 12.2793 3.78673 12 3.7882C11.7208 3.78596 6.6042 3.77639 3.39139 5.01102C3.05947 5.14035 2.76307 5.34674 2.52663 5.61318C2.2902 5.87962 2.1205 6.19845 2.03155 6.54339C1.78903 7.47439 1.5 9.17676 1.5 12C1.5 14.8231 1.78903 16.5255 2.03151 17.4565C2.12044 17.8014 2.29013 18.1203 2.52657 18.3867C2.763 18.6532 3.05942 18.8596 3.39134 18.9889C6.46692 20.1708 11.2871 20.2119 11.9382 20.2119C11.9964 20.212 12.0036 20.212 12.0618 20.2119C12.7134 20.2119 17.5332 20.1707 20.6086 18.9889C20.9405 18.8596 21.2369 18.6532 21.4734 18.3868C21.7098 18.1203 21.8795 17.8015 21.9684 17.4566C22.211 16.5256 22.5 14.8232 22.5 12C22.5 9.17681 22.211 7.47443 21.9685 6.54348ZM15.208 12.312L10.708 15.312C10.6515 15.3496 10.5859 15.3713 10.5181 15.3746C10.4503 15.3778 10.3829 15.3627 10.323 15.3306C10.2632 15.2986 10.2132 15.2509 10.1783 15.1927C10.1434 15.1345 10.125 15.0679 10.125 15V8.99998C10.125 8.9321 10.1434 8.86549 10.1783 8.80726C10.2132 8.74903 10.2632 8.70136 10.323 8.66933C10.3829 8.6373 10.4503 8.62212 10.5181 8.6254C10.5859 8.62868 10.6515 8.6503 10.708 8.68796L15.208 11.688C15.2594 11.7222 15.3015 11.7686 15.3306 11.823C15.3598 11.8775 15.375 11.9382 15.375 12C15.375 12.0617 15.3598 12.1225 15.3306 12.1769C15.3015 12.2313 15.2594 12.2777 15.208 12.312Z" fill="#292D32"/>
</svg>
